<?xml version="1.0" encoding="utf-8"?>
<!-- Generator: Adobe Illustrator 22.0.0, SVG Export Plug-In . SVG Version: 6.00 Build 0)  -->
<svg version="1.1" id="Layer_1" xmlns="http://www.w3.org/2000/svg" xmlns:xlink="http://www.w3.org/1999/xlink" x="0px" y="0px"
	 viewBox="0 0 500 500" style="enable-background:new 0 0 500 500;" xml:space="preserve">
<style type="text/css">
	.st0{fill:#C9C9C9;}
	.st1{fill:#A0A0A0;}
	.st2{fill:#71CCFF;}
	.st3{fill:#231F20;}
	.st4{fill:#F9F9F9;}
	.st5{fill:#7A7979;}
	.st6{fill:#4C4C4C;}
	.st7{fill:#F9B630;}
	.st8{fill:#D88A0E;}
	.st9{fill:#FFEDCC;}
	.st10{fill:#C0E7F9;}
	.st11{fill:#08B26C;}
	.st12{fill:#15A9EA;}
	.st13{fill:none;stroke:#C9C9C9;stroke-width:10;stroke-linecap:round;stroke-linejoin:round;stroke-miterlimit:10;}
	.st14{fill:none;stroke:#231F20;stroke-width:10;stroke-linecap:round;stroke-linejoin:round;stroke-miterlimit:10;}
	.st15{fill:#FFFFFF;}
	.st16{fill:#35EF9F;}
	.st17{fill:#22A6E0;}
	.st18{fill:#FC3A6D;}
	.st19{fill:#FFA9C8;}
	.st20{fill:#038E52;}
	.st21{fill:#E2074B;}
</style>
<g>
	<g>
		<rect x="5" y="213.7" class="st11" width="490" height="281.3"/>
	</g>
</g>
<g>
	<g>
		<path class="st20" d="M181.2,213.7H13.7v1.8c0,5.7,1.5,11.1,4.1,15.7c-2.6,4.6-4.1,10-4.1,15.7v11.5c0,10.6,5.2,20.1,13.3,25.9
			v2.6c0,13.8,11.2,25,25,25c12.6,0,23-9.4,24.8-21.5h41.5c1.7,12.1,12.2,21.5,24.8,21.5c13.8,0,25-11.2,25-25v-2.6
			c8-5.8,13.3-15.3,13.3-25.9v-11.5c0-5.7-1.5-11.1-4.1-15.7c2.6-4.6,4.1-10,4.1-15.7V213.7z"/>
	</g>
</g>
<g>
	<g>
		<path class="st20" d="M486.3,213.7H318.8v1.8c0,5.7,1.5,11.1,4.1,15.7c-2.6,4.6-4.1,10-4.1,15.7v11.5c0,10.6,5.2,20.1,13.3,25.9
			v2.6c0,13.8,11.2,25,25,25c12.6,0,23-9.4,24.8-21.5h41.5c1.7,12.1,12.2,21.5,24.8,21.5c13.8,0,25-11.2,25-25v-2.6
			c8-5.8,13.3-15.3,13.3-25.9v-11.5c0-5.7-1.5-11.1-4.1-15.7c2.6-4.6,4.1-10,4.1-15.7V213.7z"/>
	</g>
</g>
<g>
	<g>
		<rect x="5" y="326" class="st5" width="490" height="56.7"/>
	</g>
</g>
<g>
	<g>
		<path class="st6" d="M221.7,326H107.8v44.6c0,3.4,0.4,7.5,1.7,12.1h112.2V326z"/>
	</g>
</g>
<g>
	<g>
		<path class="st6" d="M392.2,326H278.3v56.7h112.2c1.3-4.6,1.7-8.7,1.7-12.1V326z"/>
	</g>
</g>
<g>
	<g>
		<path class="st3" d="M495,331H5c-2.8,0-5-2.2-5-5s2.2-5,5-5h490c2.8,0,5,2.2,5,5S497.8,331,495,331z"/>
	</g>
</g>
<g>
	<g>
		<path class="st3" d="M495,387.7H5c-2.8,0-5-2.2-5-5s2.2-5,5-5h490c2.8,0,5,2.2,5,5S497.8,387.7,495,387.7z"/>
	</g>
</g>
<g>
	<g>
		
			<rect x="109.3" y="326" transform="matrix(-1.836970e-16 1 -1 -1.836970e-16 604.3352 104.3319)" class="st5" width="281.3" height="56.7"/>
	</g>
</g>
<g>
	<g>
		<path class="st6" d="M221.7,382.7v61.3c9.2,0.9,18.7,1.4,28.3,1.4c9.6,0,19.1-0.5,28.3-1.4v-61.3H221.7z"/>
	</g>
</g>
<g>
	<g>
		<path class="st3" d="M221.7,500c-2.8,0-5-2.2-5-5V213.7c0-2.8,2.2-5,5-5s5,2.2,5,5V495C226.7,497.8,224.4,500,221.7,500z"/>
	</g>
</g>
<g>
	<g>
		<path class="st3" d="M278.3,500c-2.8,0-5-2.2-5-5V213.7c0-2.8,2.2-5,5-5s5,2.2,5,5V495C283.3,497.8,281.1,500,278.3,500z"/>
	</g>
</g>
<g>
	<g>
		<path class="st3" d="M221.7,218.7H5c-2.8,0-5-2.2-5-5s2.2-5,5-5h216.7c2.8,0,5,2.2,5,5S224.4,218.7,221.7,218.7z"/>
	</g>
</g>
<g>
	<g>
		<path class="st3" d="M495,218.7H278.3c-2.8,0-5-2.2-5-5s2.2-5,5-5H495c2.8,0,5,2.2,5,5S497.8,218.7,495,218.7z"/>
	</g>
</g>
<g>
	<g>
		<path class="st3" d="M495,500H278.3c-2.8,0-5-2.2-5-5s2.2-5,5-5H495c2.8,0,5,2.2,5,5S497.8,500,495,500z"/>
	</g>
</g>
<g>
	<g>
		<path class="st3" d="M221.7,500H5c-2.8,0-5-2.2-5-5s2.2-5,5-5h216.7c2.8,0,5,2.2,5,5S224.4,500,221.7,500z"/>
	</g>
</g>
<g>
	<g>
		<path class="st3" d="M495,500H278.3c-2.8,0-5-2.2-5-5s2.2-5,5-5H495c2.8,0,5,2.2,5,5S497.8,500,495,500z"/>
	</g>
</g>
<g>
	<g>
		<path class="st3" d="M221.7,500H5c-2.8,0-5-2.2-5-5s2.2-5,5-5h216.7c2.8,0,5,2.2,5,5S224.4,500,221.7,500z"/>
	</g>
</g>
<g>
	<g>
		<path class="st11" d="M110.7,150.1c0.4-1.3,0.7-2.8,0.7-4.3c0-7.7-6.2-13.9-13.9-13.9c-7.7,0-13.9,6.2-13.9,13.9
			c0,1.5,0.2,2.9,0.7,4.3c-6.2,1.4-10.9,6.9-10.9,13.6c0,7.7,6.2,13.9,13.9,13.9c4,0,7.7-1.7,10.2-4.5c2.5,2.7,6.2,4.5,10.2,4.5
			c7.7,0,13.9-6.2,13.9-13.9C121.6,157,116.9,151.4,110.7,150.1z"/>
	</g>
</g>
<g>
	<g>
		<path class="st3" d="M107.7,182.5c-3.6,0-7.2-1.1-10.2-3c-3,1.9-6.6,3-10.2,3c-10.4,0-18.9-8.5-18.9-18.9
			c0-7.1,4.1-13.6,10.2-16.8c0-0.4,0-0.7,0-1.1c0-10.4,8.5-18.9,18.9-18.9s18.9,8.5,18.9,18.9c0,0.4,0,0.7,0,1.1
			c6.1,3.2,10.2,9.7,10.2,16.8C126.6,174.1,118.1,182.5,107.7,182.5z M97.5,168.1c1.4,0,2.7,0.6,3.7,1.6c1.7,1.8,4,2.9,6.5,2.9
			c4.9,0,8.9-4,8.9-8.9c0-4.1-2.9-7.8-7-8.7c-1.4-0.3-2.6-1.2-3.3-2.4c-0.7-1.2-0.9-2.7-0.4-4c0.3-0.9,0.4-1.8,0.4-2.7
			c0-4.9-4-8.9-8.9-8.9c-4.9,0-8.9,4-8.9,8.9c0,0.9,0.1,1.9,0.4,2.7c0.4,1.3,0.3,2.8-0.4,4c-0.7,1.2-1.9,2.1-3.3,2.4
			c-4,0.9-7,4.6-7,8.7c0,4.9,4,8.9,8.9,8.9c2.5,0,4.8-1,6.5-2.9C94.8,168.7,96.1,168.1,97.5,168.1z"/>
	</g>
</g>
<g>
	<g>
		<path class="st3" d="M97.5,218.7c-2.8,0-5-2.2-5-5v-40.6c0-2.8,2.2-5,5-5s5,2.2,5,5v40.6C102.5,216.4,100.3,218.7,97.5,218.7z"/>
	</g>
</g>
<g>
	<g>
		<path class="st11" d="M62.5,150.1c0.4-1.3,0.7-2.8,0.7-4.3c0-7.7-6.2-13.9-13.9-13.9c-7.7,0-13.9,6.2-13.9,13.9
			c0,1.5,0.2,2.9,0.7,4.3c-6.2,1.4-10.9,6.9-10.9,13.6c0,7.7,6.2,13.9,13.9,13.9c4,0,7.7-1.7,10.2-4.5c2.5,2.7,6.2,4.5,10.2,4.5
			c7.7,0,13.9-6.2,13.9-13.9C73.4,157,68.8,151.4,62.5,150.1z"/>
	</g>
</g>
<g>
	<g>
		<path class="st3" d="M59.5,182.5c-3.6,0-7.2-1.1-10.2-3c-3,1.9-6.6,3-10.2,3c-10.4,0-18.9-8.5-18.9-18.9c0-7.1,4.1-13.6,10.2-16.8
			c0-0.3,0-0.7,0-1.1c0-10.4,8.5-18.9,18.9-18.9s18.9,8.5,18.9,18.9c0,0.4,0,0.7,0,1.1c6.1,3.2,10.2,9.7,10.2,16.8
			C78.4,174.1,69.9,182.5,59.5,182.5z M49.3,168.1c1.4,0,2.7,0.6,3.7,1.6c1.7,1.8,4,2.9,6.5,2.9c4.9,0,8.9-4,8.9-8.9
			c0-4.1-2.9-7.8-7-8.7c-1.4-0.3-2.6-1.2-3.3-2.4c-0.7-1.2-0.9-2.7-0.4-4c0.3-0.9,0.4-1.8,0.4-2.7c0-4.9-4-8.9-8.9-8.9
			c-4.9,0-8.9,4-8.9,8.9c0,0.9,0.1,1.9,0.4,2.7c0.4,1.3,0.3,2.8-0.4,4c-0.7,1.2-1.9,2.1-3.3,2.4c-4,0.9-7,4.6-7,8.7
			c0,4.9,4,8.9,8.9,8.9c2.5,0,4.8-1,6.5-2.9C46.6,168.7,47.9,168.1,49.3,168.1z"/>
	</g>
</g>
<g>
	<g>
		<path class="st3" d="M49.3,218.7c-2.8,0-5-2.2-5-5v-40.6c0-2.8,2.2-5,5-5s5,2.2,5,5v40.6C54.3,216.4,52.1,218.7,49.3,218.7z"/>
	</g>
</g>
<g>
	<g>
		<path class="st11" d="M158.9,150.1c0.4-1.3,0.7-2.8,0.7-4.3c0-7.7-6.2-13.9-13.9-13.9c-7.7,0-13.9,6.2-13.9,13.9
			c0,1.5,0.2,2.9,0.7,4.3c-6.2,1.4-10.9,6.9-10.9,13.6c0,7.7,6.2,13.9,13.9,13.9c4,0,7.7-1.7,10.2-4.5c2.5,2.7,6.2,4.5,10.2,4.5
			c7.7,0,13.9-6.2,13.9-13.9C169.8,157,165.1,151.4,158.9,150.1z"/>
	</g>
</g>
<g>
	<g>
		<path class="st3" d="M155.9,182.5c-3.6,0-7.2-1.1-10.2-3c-3,1.9-6.6,3-10.2,3c-10.4,0-18.9-8.5-18.9-18.9
			c0-7.1,4.1-13.6,10.2-16.8c0-0.3,0-0.7,0-1.1c0-10.4,8.5-18.9,18.9-18.9s18.9,8.5,18.9,18.9c0,0.4,0,0.7,0,1.1
			c6.1,3.2,10.2,9.7,10.2,16.8C174.8,174.1,166.3,182.5,155.9,182.5z M145.7,168.1c1.4,0,2.7,0.6,3.7,1.6c1.7,1.8,4,2.9,6.5,2.9
			c4.9,0,8.9-4,8.9-8.9c0-4.1-2.9-7.8-7-8.7c-1.4-0.3-2.6-1.2-3.3-2.4c-0.7-1.2-0.9-2.7-0.4-4c0.3-0.9,0.4-1.8,0.4-2.7
			c0-4.9-4-8.9-8.9-8.9c-4.9,0-8.9,4-8.9,8.9c0,0.9,0.1,1.9,0.4,2.7c0.4,1.3,0.3,2.8-0.4,4c-0.7,1.2-1.9,2.1-3.3,2.4
			c-4,0.9-7,4.6-7,8.7c0,4.9,4,8.9,8.9,8.9c2.5,0,4.8-1,6.5-2.9C142.9,168.7,144.3,168.1,145.7,168.1z"/>
	</g>
</g>
<g>
	<g>
		<path class="st3" d="M145.7,218.7c-2.8,0-5-2.2-5-5v-40.6c0-2.8,2.2-5,5-5s5,2.2,5,5v40.6C150.7,216.4,148.4,218.7,145.7,218.7z"
			/>
	</g>
</g>
<g>
	<g>
		<path class="st11" d="M415.7,150.1c0.4-1.3,0.7-2.8,0.7-4.3c0-7.7-6.2-13.9-13.9-13.9c-7.7,0-13.9,6.2-13.9,13.9
			c0,1.5,0.2,2.9,0.7,4.3c-6.2,1.4-10.9,6.9-10.9,13.6c0,7.7,6.2,13.9,13.9,13.9c4,0,7.7-1.7,10.2-4.5c2.5,2.7,6.2,4.5,10.2,4.5
			c7.7,0,13.9-6.2,13.9-13.9C426.6,157,421.9,151.4,415.7,150.1z"/>
	</g>
</g>
<g>
	<g>
		<path class="st3" d="M412.7,182.5c-3.6,0-7.2-1.1-10.2-3c-3,1.9-6.6,3-10.2,3c-10.4,0-18.9-8.5-18.9-18.9
			c0-7.1,4.1-13.6,10.2-16.8c0-0.3,0-0.7,0-1.1c0-10.4,8.5-18.9,18.9-18.9s18.9,8.5,18.9,18.9c0,0.4,0,0.7,0,1.1
			c6.1,3.2,10.2,9.7,10.2,16.8C431.6,174.1,423.1,182.5,412.7,182.5z M402.5,168.1c1.4,0,2.7,0.6,3.7,1.6c1.7,1.8,4,2.9,6.5,2.9
			c4.9,0,8.9-4,8.9-8.9c0-4.1-2.9-7.8-7-8.7c-1.4-0.3-2.6-1.2-3.3-2.4c-0.7-1.2-0.9-2.7-0.4-4c0.3-0.9,0.4-1.8,0.4-2.7
			c0-4.9-4-8.9-8.9-8.9s-8.9,4-8.9,8.9c0,0.9,0.1,1.9,0.4,2.7c0.4,1.3,0.3,2.8-0.4,4c-0.7,1.2-1.9,2.1-3.3,2.4c-4,0.9-7,4.6-7,8.7
			c0,4.9,4,8.9,8.9,8.9c2.5,0,4.8-1,6.5-2.9C399.8,168.7,401.1,168.1,402.5,168.1z"/>
	</g>
</g>
<g>
	<g>
		<path class="st3" d="M402.5,218.7c-2.8,0-5-2.2-5-5v-40.6c0-2.8,2.2-5,5-5s5,2.2,5,5v40.6C407.5,216.4,405.3,218.7,402.5,218.7z"
			/>
	</g>
</g>
<g>
	<g>
		<path class="st11" d="M367.6,150.1c0.4-1.3,0.7-2.8,0.7-4.3c0-7.7-6.2-13.9-13.9-13.9c-7.7,0-13.9,6.2-13.9,13.9
			c0,1.5,0.2,2.9,0.7,4.3c-6.2,1.4-10.9,6.9-10.9,13.6c0,7.7,6.2,13.9,13.9,13.9c4,0,7.7-1.7,10.2-4.5c2.5,2.7,6.2,4.5,10.2,4.5
			c7.7,0,13.9-6.2,13.9-13.9C378.4,157,373.8,151.4,367.6,150.1z"/>
	</g>
</g>
<g>
	<g>
		<path class="st3" d="M364.5,182.5c-3.6,0-7.2-1.1-10.2-3c-3,1.9-6.6,3-10.2,3c-10.4,0-18.9-8.5-18.9-18.9
			c0-7.1,4.1-13.6,10.2-16.8c0-0.4,0-0.7,0-1.1c0-10.4,8.5-18.9,18.9-18.9s18.9,8.5,18.9,18.9c0,0.4,0,0.7,0,1.1
			c6.1,3.2,10.2,9.7,10.2,16.8C383.4,174.1,374.9,182.5,364.5,182.5z M354.3,168.1L354.3,168.1c1.4,0,2.7,0.6,3.7,1.6
			c1.7,1.8,4,2.9,6.5,2.9c4.9,0,8.9-4,8.9-8.9c0-4.1-2.9-7.8-7-8.7c-1.4-0.3-2.6-1.2-3.3-2.4c-0.7-1.2-0.9-2.7-0.4-4
			c0.3-0.9,0.4-1.8,0.4-2.7c0-4.9-4-8.9-8.9-8.9c-4.9,0-8.9,4-8.9,8.9c0,0.9,0.1,1.9,0.4,2.7c0.4,1.3,0.3,2.8-0.4,4
			c-0.7,1.2-1.9,2.1-3.3,2.4c-4,0.9-7,4.6-7,8.7c0,4.9,4,8.9,8.9,8.9c2.5,0,4.8-1,6.5-2.9C351.6,168.7,352.9,168.1,354.3,168.1z"/>
	</g>
</g>
<g>
	<g>
		<path class="st3" d="M354.3,218.7c-2.8,0-5-2.2-5-5v-40.6c0-2.8,2.2-5,5-5s5,2.2,5,5v40.6C359.3,216.4,357.1,218.7,354.3,218.7z"
			/>
	</g>
</g>
<g>
	<g>
		<path class="st11" d="M463.9,150.1c0.4-1.3,0.7-2.8,0.7-4.3c0-7.7-6.2-13.9-13.9-13.9c-7.7,0-13.9,6.2-13.9,13.9
			c0,1.5,0.2,2.9,0.7,4.3c-6.2,1.4-10.9,6.9-10.9,13.6c0,7.7,6.2,13.9,13.9,13.9c4,0,7.7-1.7,10.2-4.5c2.5,2.7,6.2,4.5,10.2,4.5
			c7.7,0,13.9-6.2,13.9-13.9C474.8,157,470.1,151.4,463.9,150.1z"/>
	</g>
</g>
<g>
	<g>
		<path class="st3" d="M460.9,182.5c-3.6,0-7.2-1.1-10.2-3c-3,1.9-6.6,3-10.2,3c-10.4,0-18.9-8.5-18.9-18.9
			c0-7.1,4.1-13.6,10.2-16.8c0-0.3,0-0.7,0-1.1c0-10.4,8.5-18.9,18.9-18.9s18.9,8.5,18.9,18.9c0,0.4,0,0.7,0,1.1
			c6.1,3.2,10.2,9.7,10.2,16.8C479.8,174.1,471.3,182.5,460.9,182.5z M450.7,168.1L450.7,168.1c1.4,0,2.7,0.6,3.7,1.6
			c1.7,1.8,4,2.9,6.5,2.9c4.9,0,8.9-4,8.9-8.9c0-4.1-2.9-7.8-7-8.7c-1.4-0.3-2.6-1.2-3.3-2.4c-0.7-1.2-0.9-2.7-0.4-4
			c0.3-0.9,0.4-1.8,0.4-2.7c0-4.9-4-8.9-8.9-8.9c-4.9,0-8.9,4-8.9,8.9c0,0.9,0.1,1.9,0.4,2.7c0.4,1.3,0.3,2.8-0.4,4
			c-0.7,1.2-1.9,2.1-3.3,2.4c-4,0.9-7,4.6-7,8.7c0,4.9,4,8.9,8.9,8.9c2.5,0,4.8-1,6.5-2.9C447.9,168.7,449.3,168.1,450.7,168.1z"/>
	</g>
</g>
<g>
	<g>
		<path class="st3" d="M450.7,218.7c-2.8,0-5-2.2-5-5v-40.6c0-2.8,2.2-5,5-5s5,2.2,5,5v40.6C455.7,216.4,453.4,218.7,450.7,218.7z"
			/>
	</g>
</g>
<g>
	<g>
		<path class="st0" d="M372.2,370.6c0,30.2-54.7,54.7-122.2,54.7s-122.2-24.5-122.2-54.7v-55.2h244.4V370.6z"/>
	</g>
</g>
<g>
	<g>
		<path class="st0" d="M127.8,351H33.3c-2.8,0-5-2.2-5-5s2.2-5,5-5h94.5c2.8,0,5,2.2,5,5S130.5,351,127.8,351z"/>
	</g>
</g>
<g>
	<g>
		<path class="st3" d="M153.9,409.4c-0.8,0-1.7-0.2-2.5-0.7c-0.7-0.4-1.4-0.8-2-1.2c-2.4-1.4-3.1-4.5-1.7-6.9
			c1.4-2.4,4.5-3.1,6.9-1.7c0.6,0.4,1.2,0.7,1.8,1.1c2.4,1.4,3.2,4.4,1.9,6.8C157.3,408.5,155.7,409.4,153.9,409.4z"/>
	</g>
</g>
<g>
	<g>
		<path class="st3" d="M191.7,423.7c-0.4,0-0.8,0-1.2-0.1c-8.9-2.2-17.1-4.8-24.6-7.9c-2.6-1-3.8-4-2.7-6.5c1-2.6,4-3.8,6.5-2.7
			c7,2.9,14.9,5.4,23.2,7.4c2.7,0.7,4.3,3.4,3.7,6C196,422.2,194,423.7,191.7,423.7z"/>
	</g>
</g>
<g>
	<g>
		<path class="st3" d="M250,430.3c-14,0-27.8-1-40.9-3.1c-2.7-0.4-4.6-3-4.2-5.7s3-4.6,5.7-4.2c12.6,2,25.9,3,39.4,3
			c28,0,55.2-4.4,76.6-12.4c2.6-1,5.5,0.3,6.4,2.9s-0.3,5.5-2.9,6.4C307.6,425.7,279.2,430.3,250,430.3z"/>
	</g>
</g>
<g>
	<g>
		<path class="st3" d="M343.8,410.7c-1.8,0-3.5-1-4.4-2.6c-1.3-2.4-0.4-5.5,2.1-6.8c16.7-8.9,25.8-19.8,25.8-30.7v-50.2H132.8v50.2
			c0,6.1,2.8,12.2,8.4,18.1c1.9,2,1.8,5.2-0.2,7.1c-2,1.9-5.2,1.8-7.1-0.2c-7.4-7.8-11.2-16.2-11.2-25v-55.2c0-2.8,2.2-5,5-5h244.4
			c2.8,0,5,2.2,5,5v55.2c0,14.8-11,28.8-31.1,39.5C345.4,410.5,344.6,410.7,343.8,410.7z"/>
	</g>
</g>
<g>
	<g>
		<ellipse class="st0" cx="250" cy="315.4" rx="122.2" ry="54.7"/>
	</g>
</g>
<g>
	<g>
		<path class="st3" d="M250,375.1c-71.3,0-127.2-26.2-127.2-59.7s55.9-59.7,127.2-59.7s127.2,26.2,127.2,59.7S321.3,375.1,250,375.1
			z M250,265.7c-63.5,0-117.2,22.8-117.2,49.7s53.7,49.7,117.2,49.7s117.2-22.8,117.2-49.7S313.5,265.7,250,265.7z"/>
	</g>
</g>
<g>
	<g>
		<path class="st2" d="M250,342.3c-26.1,0-50.9-4.1-70-11.5c-16.4-6.4-22.7-13-24.2-15.5c1.5-2.4,7.7-9.1,24.2-15.5
			c19.1-7.4,43.9-11.5,70-11.5s50.9,4.1,70,11.5c16.4,6.4,22.7,13,24.2,15.5c-1.5,2.4-7.7,9.1-24.2,15.5
			C300.9,338.3,276.1,342.3,250,342.3z"/>
	</g>
</g>
<g>
	<g>
		<path class="st3" d="M250,347.3c-26.7,0-52.2-4.2-71.8-11.8c-15.4-6-23.9-13-26.6-17.5c-1-1.6-1-3.6,0-5.2
			c2.8-4.5,11.2-11.5,26.6-17.5c19.6-7.6,45.1-11.8,71.8-11.8s52.2,4.2,71.8,11.8c15.4,6,23.9,13,26.6,17.5c1,1.6,1,3.6,0,5.2
			c-2.8,4.5-11.2,11.5-26.6,17.5C302.2,343.1,276.7,347.3,250,347.3z M162.5,315.4c2.8,2.5,8.5,6.6,19.3,10.8
			c18.5,7.2,42.7,11.2,68.2,11.2s49.7-4,68.2-11.2c10.8-4.2,16.5-8.3,19.3-10.8c-2.8-2.5-8.5-6.6-19.3-10.8
			c-18.5-7.2-42.7-11.2-68.2-11.2s-49.7,4-68.2,11.2C171,308.8,165.3,312.9,162.5,315.4z"/>
	</g>
</g>
<g>
	<g>
		<polyline class="st2" points="278.3,46 278.3,308 221.7,308 221.7,46 		"/>
	</g>
</g>
<g>
	<g>
		<path class="st3" d="M221.7,313c-2.8,0-5-2.2-5-5V181.7c0-2.8,2.2-5,5-5s5,2.2,5,5V308C226.7,310.8,224.4,313,221.7,313z"/>
	</g>
</g>
<g>
	<g>
		<path class="st3" d="M221.7,169.7c-2.8,0-5-2.2-5-5v-45c0-24.8-20.2-45-45-45s-45,20.2-45,45c0,2.8-2.2,5-5,5s-5-2.2-5-5
			c0-30.3,24.7-55,55-55s55,24.7,55,55v45C226.7,167.4,224.4,169.7,221.7,169.7z"/>
	</g>
</g>
<g>
	<g>
		<path class="st3" d="M221.7,131.6c-2.8,0-5-2.2-5-5V40c0-16.5-13.5-30-30-30s-30,13.5-30,30c0,2.8-2.2,5-5,5s-5-2.2-5-5
			c0-22.1,17.9-40,40-40s40,17.9,40,40v86.6C226.7,129.4,224.4,131.6,221.7,131.6z"/>
	</g>
</g>
<g>
	<g>
		<path class="st3" d="M278.3,313c-2.8,0-5-2.2-5-5V144.3c0-2.8,2.2-5,5-5s5,2.2,5,5V308C283.3,310.8,281.1,313,278.3,313z"/>
	</g>
</g>
<g>
	<g>
		<path class="st3" d="M378.3,124.6c-2.8,0-5-2.2-5-5c0-24.8-20.2-45-45-45s-45,20.2-45,45c0,2.8-2.2,5-5,5s-5-2.2-5-5
			c0-30.3,24.7-55,55-55s55,24.7,55,55C383.3,122.4,381.1,124.6,378.3,124.6z"/>
	</g>
</g>
<g>
	<g>
		<path class="st3" d="M278.3,131.6c-2.8,0-5-2.2-5-5V40c0-22.1,17.9-40,40-40c22.1,0,40,17.9,40,40c0,2.8-2.2,5-5,5s-5-2.2-5-5
			c0-16.5-13.5-30-30-30s-30,13.5-30,30v86.6C283.3,129.4,281.1,131.6,278.3,131.6z"/>
	</g>
</g>
<g>
	<g>
		<path class="st7" d="M454.3,222.5H350.8c-3.9,0-7-3.1-7-7V204c0-3.9,3.1-7,7-7h103.5c3.9,0,7,3.1,7,7v11.5
			C461.3,219.4,458.1,222.5,454.3,222.5z"/>
	</g>
</g>
<g>
	<g>
		<path class="st3" d="M454.3,227.5H350.8c-6.6,0-12-5.4-12-12V204c0-6.6,5.4-12,12-12h103.5c6.6,0,12,5.4,12,12v11.5
			C466.3,222.1,460.9,227.5,454.3,227.5z M350.8,202c-1.1,0-2,0.9-2,2v11.5c0,1.1,0.9,2,2,2h103.5c1.1,0,2-0.9,2-2V204
			c0-1.1-0.9-2-2-2H350.8z"/>
	</g>
</g>
<g>
	<g>
		<path class="st7" d="M454.3,265.4H350.8c-3.9,0-7-3.1-7-7v-11.5c0-3.9,3.1-7,7-7h103.5c3.9,0,7,3.1,7,7v11.5
			C461.3,262.3,458.1,265.4,454.3,265.4z"/>
	</g>
</g>
<g>
	<g>
		<path class="st3" d="M454.3,270.4H350.8c-6.6,0-12-5.4-12-12v-11.5c0-6.6,5.4-12,12-12h103.5c6.6,0,12,5.4,12,12v11.5
			C466.3,265,460.9,270.4,454.3,270.4z M350.8,244.9c-1.1,0-2,0.9-2,2v11.5c0,1.1,0.9,2,2,2h103.5c1.1,0,2-0.9,2-2v-11.5
			c0-1.1-0.9-2-2-2H350.8z"/>
	</g>
</g>
<g>
	<g>
		<path class="st3" d="M357,291.9c-2.8,0-5-2.2-5-5v-21.5c0-2.8,2.2-5,5-5s5,2.2,5,5v21.5C362,289.6,359.8,291.9,357,291.9z"/>
	</g>
</g>
<g>
	<g>
		<path class="st3" d="M448,291.9c-2.8,0-5-2.2-5-5v-21.5c0-2.8,2.2-5,5-5s5,2.2,5,5v21.5C453,289.6,450.8,291.9,448,291.9z"/>
	</g>
</g>
<g>
	<g>
		<path class="st3" d="M370.8,244.9c-2.8,0-5-2.2-5-5v-17.4c0-2.8,2.2-5,5-5s5,2.2,5,5v17.4C375.8,242.7,373.5,244.9,370.8,244.9z"
			/>
	</g>
</g>
<g>
	<g>
		<path class="st3" d="M434.3,244.9c-2.8,0-5-2.2-5-5v-17.4c0-2.8,2.2-5,5-5s5,2.2,5,5v17.4C439.3,242.7,437,244.9,434.3,244.9z"/>
	</g>
</g>
<g>
	<g>
		<path class="st7" d="M149.2,222.5H45.7c-3.9,0-7-3.1-7-7V204c0-3.9,3.1-7,7-7h103.5c3.9,0,7,3.1,7,7v11.5
			C156.2,219.4,153.1,222.5,149.2,222.5z"/>
	</g>
</g>
<g>
	<g>
		<path class="st3" d="M149.2,227.5H45.7c-6.6,0-12-5.4-12-12V204c0-6.6,5.4-12,12-12h103.5c6.6,0,12,5.4,12,12v11.5
			C161.2,222.1,155.9,227.5,149.2,227.5z M45.7,202c-1.1,0-2,0.9-2,2v11.5c0,1.1,0.9,2,2,2h103.5c1.1,0,2-0.9,2-2V204
			c0-1.1-0.9-2-2-2H45.7z"/>
	</g>
</g>
<g>
	<g>
		<path class="st7" d="M149.2,265.4H45.7c-3.9,0-7-3.1-7-7v-11.5c0-3.9,3.1-7,7-7h103.5c3.9,0,7,3.1,7,7v11.5
			C156.2,262.3,153.1,265.4,149.2,265.4z"/>
	</g>
</g>
<g>
	<g>
		<path class="st3" d="M149.2,270.4H45.7c-6.6,0-12-5.4-12-12v-11.5c0-6.6,5.4-12,12-12h103.5c6.6,0,12,5.4,12,12v11.5
			C161.2,265,155.9,270.4,149.2,270.4z M45.7,244.9c-1.1,0-2,0.9-2,2v11.5c0,1.1,0.9,2,2,2h103.5c1.1,0,2-0.9,2-2v-11.5
			c0-1.1-0.9-2-2-2H45.7z"/>
	</g>
</g>
<g>
	<g>
		<path class="st3" d="M52,291.9c-2.8,0-5-2.2-5-5v-21.5c0-2.8,2.2-5,5-5s5,2.2,5,5v21.5C57,289.6,54.8,291.9,52,291.9z"/>
	</g>
</g>
<g>
	<g>
		<path class="st3" d="M143,291.9c-2.8,0-5-2.2-5-5v-21.5c0-2.8,2.2-5,5-5s5,2.2,5,5v21.5C148,289.6,145.8,291.9,143,291.9z"/>
	</g>
</g>
<g>
	<g>
		<path class="st3" d="M65.7,244.9c-2.8,0-5-2.2-5-5v-17.4c0-2.8,2.2-5,5-5s5,2.2,5,5v17.4C70.7,242.7,68.5,244.9,65.7,244.9z"/>
	</g>
</g>
<g>
	<g>
		<path class="st3" d="M129.2,244.9c-2.8,0-5-2.2-5-5v-17.4c0-2.8,2.2-5,5-5s5,2.2,5,5v17.4C134.2,242.7,132,244.9,129.2,244.9z"/>
	</g>
</g>
<g>
	<g>
		<path class="st10" d="M241.7,302.3c-2.8,0-5-2.2-5-5V100.7c0-2.8,2.2-5,5-5s5,2.2,5,5v196.7C246.7,300.1,244.4,302.3,241.7,302.3z
			"/>
	</g>
</g>
<g>
	<g>
		<path class="st10" d="M241.7,86c-2.8,0-5-2.2-5-5v-7c0-2.8,2.2-5,5-5s5,2.2,5,5v7C246.7,83.8,244.4,86,241.7,86z"/>
	</g>
</g>
<g>
	<g>
		<path class="st3" d="M250,14.5c-2.8,0-5-2.2-5-5V5c0-2.8,2.2-5,5-5s5,2.2,5,5v4.5C255,12.3,252.8,14.5,250,14.5z"/>
	</g>
</g>
<g>
	<g>
		<path class="st3" d="M250,55c-2.8,0-5-2.2-5-5V26.5c0-2.8,2.2-5,5-5s5,2.2,5,5V50C255,52.8,252.8,55,250,55z"/>
	</g>
</g>
<g>
	<g>
		<path class="st0" d="M13.7,351H5c-2.8,0-5-2.2-5-5s2.2-5,5-5h8.7c2.8,0,5,2.2,5,5S16.5,351,13.7,351z"/>
	</g>
</g>
<g>
	<g>
		<path class="st0" d="M466.3,351h-62.7c-2.8,0-5-2.2-5-5s2.2-5,5-5h62.7c2.8,0,5,2.2,5,5S469.1,351,466.3,351z"/>
	</g>
</g>
</svg>
