<?xml version="1.0" encoding="UTF-8"?>
<!DOCTYPE svg PUBLIC "-//W3C//DTD SVG 1.1//EN" "http://www.w3.org/Graphics/SVG/1.1/DTD/svg11.dtd">
<!-- Creator: CorelDRAW -->
<svg xmlns="http://www.w3.org/2000/svg" xml:space="preserve" width="6.82666in" height="6.82666in" style="shape-rendering:geometricPrecision; text-rendering:geometricPrecision; image-rendering:optimizeQuality; fill-rule:evenodd; clip-rule:evenodd"
viewBox="0 0 6.82666 6.82666"
 xmlns:xlink="http://www.w3.org/1999/xlink">
 <defs>
  <style type="text/css">
   <![CDATA[
    .str0 {stroke:#212121;stroke-width:0.00333465}
    .fil2 {fill:none}
    .fil14 {fill:#263238}
    .fil15 {fill:#33691E}
    .fil3 {fill:#3E2723}
    .fil17 {fill:#4B772D}
    .fil16 {fill:#558B2F}
    .fil10 {fill:#616161}
    .fil11 {fill:#689F38}
    .fil13 {fill:#757575}
    .fil1 {fill:#7E57C2}
    .fil12 {fill:#8BC34A}
    .fil0 {fill:#9575CD}
    .fil8 {fill:#A8977E}
    .fil4 {fill:#D50000}
    .fil9 {fill:#391F0B;fill-rule:nonzero}
    .fil7 {fill:#7CB342;fill-rule:nonzero}
    .fil6 {fill:#8BC34A;fill-rule:nonzero}
    .fil5 {fill:#CABCA9;fill-rule:nonzero}
   ]]>
  </style>
   <clipPath id="id0">
    <path d="M3.41333 -3.93701e-006c1.88513,0 3.41333,1.5282 3.41333,3.41333 0,1.88513 -1.5282,3.41333 -3.41333,3.41333 -1.88513,0 -3.41333,-1.5282 -3.41333,-3.41333 0,-1.88513 1.5282,-3.41333 3.41333,-3.41333z"/>
   </clipPath>
 </defs>
 <g id="Layer_x0020_1">
  <metadata id="CorelCorpID_0Corel-Layer"/>
  <path class="fil0" d="M3.41333 -3.93701e-006c1.88513,0 3.41333,1.5282 3.41333,3.41333 0,1.88513 -1.5282,3.41333 -3.41333,3.41333 -1.88513,0 -3.41333,-1.5282 -3.41333,-3.41333 0,-1.88513 1.5282,-3.41333 3.41333,-3.41333z"/>
  <g style="clip-path:url(#id0)">
   <g id="_457168256">
    <g>
     <polygon id="_4546131041" class="fil1" points="5.24794,2.87365 9.03421,6.65992 8.61444,6.65992 4.82817,2.87365 "/>
     <polygon id="_454612984" class="fil1" points="4.82817,2.87365 8.61444,6.65992 8.61444,7.32298 4.82817,3.53671 "/>
     <polygon id="_454614280" class="fil1" points="4.90205,3.53671 8.68831,7.32298 8.68831,7.47758 4.90205,3.69131 "/>
     <polygon id="_454614016" class="fil1" points="4.90205,3.69131 8.68831,7.47758 8.65194,7.47758 4.86567,3.69131 "/>
     <polygon id="_454614088" class="fil1" points="4.86567,3.69131 8.65194,7.47758 8.65194,8.0687 4.86567,4.28243 "/>
     <polygon id="_454614184" class="fil1" points="4.90205,4.28243 8.68831,8.0687 8.68831,8.2233 4.90205,4.43703 "/>
     <polygon id="_454614472" class="fil1" points="4.90205,4.43703 8.68831,8.2233 8.65194,8.2233 4.86567,4.43703 "/>
     <polygon id="_454614952" class="fil1" points="4.86567,4.43703 8.65194,8.2233 8.61444,8.2233 4.82817,4.43703 "/>
     <polygon id="_454614784" class="fil1" points="4.82817,4.43703 8.61444,8.2233 8.61444,8.72587 4.82817,4.9396 "/>
     <polygon id="_454615048" class="fil1" points="5.00753,4.98833 8.7938,8.7746 8.79728,8.77826 8.80065,8.78202 8.80389,8.78589 8.80703,8.78985 8.81004,8.79392 8.81292,8.79807 8.81568,8.80233 5.02941,5.01606 5.02665,5.0118 5.02377,5.00765 5.02076,5.00358 5.01763,4.99961 5.01438,4.99575 5.01101,4.99198 "/>
     <polygon id="_454615168" class="fil1" points="5.2436,5.05246 9.02987,8.83873 9.03788,8.84754 9.04503,8.85709 9.05125,8.8673 9.05649,8.87813 9.06067,8.8895 9.06374,8.90135 9.06562,8.91362 9.06626,8.92624 9.06626,9.05016 5.28,5.26389 5.28,5.13997 5.27935,5.12735 5.27747,5.11508 5.2744,5.10323 5.27022,5.09186 5.26498,5.08103 5.25876,5.07081 5.25161,5.06127 "/>
     <polygon id="_454614760" class="fil1" points="5.28,5.26389 9.06626,9.05016 8.75598,9.05016 4.96971,5.26389 "/>
     <polygon id="_454614880" class="fil1" points="4.96971,5.26389 8.75598,9.05016 8.66868,9.05016 4.88241,5.26389 "/>
     <polygon id="_454614592" class="fil1" points="4.88241,5.26389 8.66868,9.05016 8.59691,9.05016 4.81064,5.26389 "/>
     <polygon id="_454614520" class="fil1" points="4.81064,5.26389 8.59691,9.05016 8.41083,9.05016 4.62456,5.26389 "/>
     <polygon id="_454614928" class="fil1" points="4.62456,5.26389 8.41083,9.05016 8.34409,9.05016 4.55782,5.26389 "/>
     <polygon id="_454614664" class="fil1" points="1.96644,2.87365 5.7527,6.65992 5.33293,6.65992 1.54667,2.87365 "/>
     <polygon id="_454615336" class="fil1" points="1.96643,4.43703 5.7527,8.2233 5.7152,8.2233 1.92894,4.43703 "/>
     <polygon id="_454615528" class="fil1" points="2.64379,5.26389 6.43006,9.05016 6.28063,9.05016 2.49437,5.26389 "/>
     <polygon id="_454615888" class="fil1" points="2.49437,5.26389 6.28063,9.05016 6.14746,9.05016 2.36119,5.26389 "/>
     <polygon id="_454615576" class="fil1" points="2.36119,5.26389 6.14746,9.05016 5.92153,9.05016 2.13526,5.26389 "/>
     <polygon id="_454615672" class="fil1" points="2.13526,5.26389 5.92153,9.05016 5.92083,9.05016 2.13456,5.26389 "/>
     <polygon id="_454615816" class="fil1" points="2.13456,5.26389 5.92083,9.05016 5.67739,9.05016 1.89113,5.26389 "/>
     <polygon id="_454615600" class="fil1" points="1.89113,5.26389 5.67739,9.05016 5.45147,9.05016 1.6652,5.26389 "/>
     <polygon id="_454615768" class="fil1" points="1.92894,4.43703 5.7152,8.2233 5.67883,8.2233 1.89256,4.43703 "/>
     <polygon id="_454615960" class="fil1" points="1.92894,3.69131 5.7152,7.47758 5.67883,7.47758 1.89256,3.69131 "/>
     <polygon id="_454615432" class="fil1" points="3.59032,5.26389 7.37659,9.05016 6.43006,9.05016 2.64379,5.26389 "/>
     <polygon id="_454615624" class="fil1" points="4.55782,5.26389 8.34409,9.05016 7.37659,9.05016 3.59032,5.26389 "/>
    </g>
    <path id="_457168016" class="fil1" d="M3.41333 1.56363l1.83461 1.31001 -0.419776 0 0 0.663063 0.073878 0 0 0.154598 -0.036374 0 0 0.591122 0.036374 0 0 0.154598 -0.036374 0 -0.0375 0 0 0.502575 0.0637598 0c0.0577795,0 0.108752,0.0306299 0.13748,0.0764528l0.126673 0c0.0681496,0 0.123909,0.0557638 0.123909,0.123917l0 0.123913 -0.310283 0 -0.0872992 0 -0.0717756 0 -0.186075 0 -0.0667441 0 -0.967496 0 -0.946531 0 -0.149425 0 -0.133177 0 -0.225929 0 -0.00069685 0 -0.243437 0 -0.225921 0 0 -0.123913c0,-0.0681535 0.0557598,-0.123917 0.123909,-0.123917l0.114839 0c0.0152953,-0.0244016 0.0369016,-0.0444921 0.0624803,-0.0579449l0 -0.521083 -0.0374961 0 -0.036374 0 0 -0.154598 0.036374 0 0 -0.591122 -0.036374 0 0 -0.154598 0.073874 0 0 -0.663063 -0.419772 0 1.86546 -1.31087 0.00120472 0.000858268z"/>
   </g>
  </g>
  <path class="fil2" d="M3.41333 -3.93701e-006c1.88513,0 3.41333,1.5282 3.41333,3.41333 0,1.88513 -1.5282,3.41333 -3.41333,3.41333 -1.88513,0 -3.41333,-1.5282 -3.41333,-3.41333 0,-1.88513 1.5282,-3.41333 3.41333,-3.41333z"/>
  <rect class="fil3 str0" x="1.92894" y="3.65948" width="0.0454727" height="0.777547"/>
  <rect class="fil4" x="1.89256" y="4.28243" width="0.0818469" height="0.154598"/>
  <rect class="fil4" x="1.89256" y="3.53671" width="0.0818469" height="0.154598"/>
  <rect class="fil3 str0" x="4.8202" y="3.65948" width="0.0454727" height="0.777547"/>
  <rect class="fil4" x="4.8202" y="4.28243" width="0.0818469" height="0.154598"/>
  <rect class="fil4" x="4.8202" y="3.53671" width="0.0818469" height="0.154598"/>
  <polygon class="fil5" points="4.82817,5.11877 4.82817,5.19408 4.75286,5.19408 4.52692,5.19408 4.52692,5.11877 4.52692,3.61202 4.52692,3.53671 4.45161,3.53671 3.69654,3.53671 3.62123,3.53671 3.62123,3.61202 3.62123,5.11877 3.62123,5.19408 2.04174,5.19408 1.96644,5.19408 1.96643,5.11877 1.96644,2.85577 2.04174,2.85577 4.75286,2.85577 4.82817,2.85577 "/>
  <polygon class="fil6" points="1.54667,2.87365 3.41213,1.56278 5.24794,2.87365 "/>
  <polygon class="fil7" points="1.54667,2.87365 3.41213,1.56278 3.41333,1.56363 3.41333,2.87365 "/>
  <polygon class="fil8" points="3.62123,3.61202 3.62123,5.11877 3.62123,5.19408 4.52692,5.19408 4.52692,5.11877 4.52692,3.61202 4.52692,3.53671 4.45161,3.53671 3.69654,3.53671 3.62123,3.53671 "/>
  <path class="fil9" d="M3.64476 3.58848l0 1.50675 0 0.0517756 0.858622 0 0 -0.0517756 0 -1.50675 0 -0.0517756 -0.0517756 0 -0.755067 0 -0.0517795 0 0 0.0517756zm-0.0470669 1.50675l0 -1.50675 0 -0.075311 0 -0.0235354 0.0235354 0 0.075311 0 0.755067 0 0.075311 0 0.0235315 0 0 0.0235354 0 0.075311 0 1.50675 0 0.0753071 0 0.0235354 -0.0235315 0 -0.905689 0 -0.0235354 0 0 -0.0235354 0 -0.0753071z"/>
  <rect class="fil10" x="2.13526" y="5.13997" width="2.74715" height="0.123913"/>
  <path class="fil11" d="M2.01135 5.01606l-0.222236 0c-0.0681496,0 -0.123909,0.0557638 -0.123909,0.123917l0 0.123913 0.469358 0c0.000385827,0 0.00069685,-0.000314961 0.00069685,-0.00069685l0 -0.123217c0,-0.0681535 -0.0557598,-0.123917 -0.123909,-0.123917z"/>
  <path class="fil11" d="M2.5696 5.11467l-0.133807 0c-0.0410354,0 -0.0746063,0.0335709 -0.0746063,0.0746024l0 0.0746102 0.282602 0c0.000228346,0 0.000417323,-0.000185039 0.000417323,-0.000417323l0 -0.0741929c0,-0.0410315 -0.0335709,-0.0746024 -0.0746063,-0.0746024z"/>
  <path class="fil12" d="M2.33223 4.9396l-0.290799 0c-0.0891732,0 -0.162134,0.0729606 -0.162134,0.162138l0 0.150311c0,0.00651181 0.00532283,0.0118346 0.0118307,0.0118346l0.60324 0 0 -0.162146c0,-0.0891772 -0.0729646,-0.162138 -0.162138,-0.162138z"/>
  <path class="fil11" d="M4.7867 4.9396l0.105232 0c0.0891772,0 0.162138,0.0729606 0.162138,0.162138l0 0.0777835c0,0.0463976 -0.0379606,0.0843622 -0.0843583,0.0843622l-0.34515 0 0 -0.162146c0,-0.0891772 0.0729646,-0.162138 0.162138,-0.162138z"/>
  <path class="fil12" d="M4.93385 5.01606l0.222236 0c0.0681496,0 0.123909,0.0557638 0.123909,0.123917l0 0.123913 -0.469358 0c-0.000385827,0 -0.00069685,-0.000314961 -0.00069685,-0.00069685l0 -0.123217c0,-0.0681535 0.0557598,-0.123917 0.123909,-0.123917z"/>
  <rect class="fil13" x="3.59032" y="5.19408" width="0.967495" height="0.0698056"/>
  <path class="fil14" d="M3.79885 4.26148c0.0425827,0 0.0771063,0.0345197 0.0771063,0.0771024 0,0.0425866 -0.0345236,0.0771063 -0.0771063,0.0771063 -0.0425827,0 -0.0771063,-0.0345197 -0.0771063,-0.0771063 0,-0.0425827 0.0345236,-0.0771024 0.0771063,-0.0771024z"/>
  <path class="fil15" d="M3.41937 3.79307c-0.132079,0.0844055 -0.2105,0.226059 -0.295134,0.301799 -0.536929,0.480508 -0.793346,-0.641705 0.295134,-0.301799z"/>
  <path class="fil16" d="M2.6059 4.2057c0.111209,-0.123161 0.204913,-0.257189 0.39298,-0.323161 0.0762047,-0.0267362 0.0922165,-0.0381417 0.175303,-0.0482362l-0.000901575 0.000114173c0.0341772,-0.000795276 0.0479055,0.00369685 0.0799055,0.00978346 -0.0264803,0.000870079 -0.00766535,0.00116535 -0.0394252,-0.00151575 -0.0764882,-0.00645669 -0.140193,0.0269921 -0.209701,0.0536024 -0.195547,0.0748661 -0.273661,0.215472 -0.397512,0.349646l-0.000649606 -0.0402323z"/>
  <path class="fil16" d="M2.94107 3.90784c0.0129291,-0.000307087 0.0261575,-0.000125984 0.0397283,0.000606299 0.0681299,0.00367323 0.084311,-7.87402e-005 0.152457,0.0188071l-0.000744094 -0.00019685c0.0269528,0.0103858 0.0362244,0.0183189 0.0592559,0.0333819 -0.0209606,-0.00785039 -0.0063622,-0.00155906 -0.0303031,-0.0138858 -0.0576575,-0.029685 -0.118189,-0.0240866 -0.181047,-0.0256969 -0.013811,-0.000354331 -0.027189,-0.000165354 -0.040189,0.000519685 0.002,-0.00423622 0.0022874,-0.00909055 0.00084252,-0.0135354z"/>
  <path class="fil16" d="M2.8071 3.99143c0.000740157,3.54331e-005 0.0014685,6.29921e-005 0.00220866,0.000102362 0.0806417,0.00434646 0.0997913,-9.44882e-005 0.180449,0.0222598l-0.000877953 -0.000232283c0.0319016,0.0122953 0.042878,0.0216811 0.0701378,0.0395118 -0.024811,-0.00929134 -0.0075315,-0.00184646 -0.0358701,-0.016437 -0.0682441,-0.0351339 -0.13989,-0.0285079 -0.214295,-0.0304134l-0.00159843 -3.14961e-005c0.00166535,-0.00476772 0.00161417,-0.0100236 -0.000153543,-0.0147598z"/>
  <path class="fil16" d="M3.02189 3.88761c0.00566142,-0.00652756 0.0110079,-0.0132717 0.016,-0.0202638 0.025063,-0.0350906 0.035189,-0.0428189 0.0465236,-0.0799055l-0.000125984 0.000401575c0.00184646,-0.0150512 -0.00144882,-0.0207992 -0.00544882,-0.0344685 -0.00164567,0.0116772 -0.00124409,0.00343701 -9.05512e-005,0.0172126 0.00277559,0.0331693 -0.0274882,0.063189 -0.0522165,0.0953346 -0.00543307,0.00705906 -0.0111772,0.0138307 -0.0172047,0.0203465 0.00465354,-0.00046063 0.00915748,2.75591e-005 0.012563,0.00134252z"/>
  <path class="fil16" d="M2.8499 3.97376c0.000322835,-0.000452756 0.000653543,-0.000901575 0.000976378,-0.00135433 0.0352402,-0.049685 0.0483701,-0.0601142 0.0679567,-0.114307l-0.000220472 0.000586614c0.00474016,-0.0222992 0.00188976,-0.0312598 -0.000425197,-0.0521457 -0.0039252,0.0172756 -0.00204331,0.005 -0.00306299,0.0257244 -0.0024685,0.0499094 -0.0428976,0.0914291 -0.0772402,0.136744l-0.000748031 0.000968504c0.00495276,0.000188976 0.00949606,0.00153543 0.0127638,0.00378346z"/>
  <path class="fil15" d="M2.26063 3.96552c0.0641772,0.0410079 0.102283,0.109839 0.143406,0.146638 0.26089,0.233476 0.38548,-0.311795 -0.143406,-0.146638z"/>
  <path class="fil17" d="M2.65589 4.16602c-0.0540354,-0.0598465 -0.0995669,-0.124969 -0.190949,-0.157024 -0.0370276,-0.0129921 -0.0448071,-0.0185354 -0.0851772,-0.023437l0.000437008 5.51181e-005c-0.0166063,-0.000389764 -0.0232756,0.00179528 -0.0388268,0.00475197 0.0128661,0.000425197 0.00372441,0.000566929 0.0191575,-0.00073622 0.0371654,-0.0031378 0.0681181,0.0131181 0.101894,0.0260472 0.0950118,0.036374 0.132969,0.104693 0.193146,0.169886l0.000318898 -0.0195433z"/>
  <path class="fil17" d="M2.49304 4.02128c-0.00628346,-0.000145669 -0.0127087,-5.90551e-005 -0.0193031,0.000295276 -0.0331063,0.00178346 -0.0409685,-3.93701e-005 -0.0740787,0.0091378l0.000362205 -9.44882e-005c-0.0130945,0.00504724 -0.0176024,0.00890157 -0.0287913,0.0162205 0.010185,-0.00381496 0.00309055,-0.000759843 0.0147244,-0.00674803 0.0280157,-0.0144252 0.0574252,-0.0117047 0.0879685,-0.0124843 0.00670866,-0.000173228 0.0132126,-8.26772e-005 0.0195276,0.000251969 -0.000972441,-0.00205906 -0.00111417,-0.00441732 -0.000409449,-0.00657874z"/>
  <path class="fil17" d="M2.55813 4.0619c-0.000358268,1.9685e-005 -0.000712598,3.14961e-005 -0.00107087,5.11811e-005 -0.039185,0.00211024 -0.0484882,-4.72441e-005 -0.0876811,0.010815l0.000429134 -0.000114173c-0.0155,0.00597638 -0.0208346,0.0105354 -0.0340787,0.0192008 0.0120551,-0.00451575 0.00365748,-0.000897638 0.0174252,-0.00798819 0.0331614,-0.0170709 0.0679724,-0.0138504 0.104126,-0.0147756l0.000779528 -1.5748e-005c-0.000811024,-0.0023189 -0.000787402,-0.00487008 7.08661e-005,-0.00717323z"/>
  <path class="fil17" d="M2.45377 4.01146c-0.00275197,-0.00317323 -0.00535039,-0.00644882 -0.00777559,-0.00984646 -0.0121772,-0.0170512 -0.0170945,-0.0208071 -0.0226063,-0.0388268l6.29921e-005 0.00019685c-0.000897638,-0.00731496 0.000704724,-0.0101063 0.00264961,-0.016748 0.000799213,0.00567323 0.000602362,0.00166929 4.33071e-005,0.0083622 -0.00135039,0.0161181 0.0133543,0.0307047 0.0253701,0.0463228 0.00264173,0.00342913 0.00542913,0.00672047 0.0083622,0.00988583 -0.00226378,-0.000224409 -0.00445276,1.1811e-005 -0.0061063,0.000653543z"/>
  <path class="fil17" d="M2.53733 4.05331c-0.00015748,-0.000216535 -0.000318898,-0.000437008 -0.000476378,-0.00065748 -0.017122,-0.0241378 -0.0235,-0.0292087 -0.0330197,-0.0555394l0.000110236 0.000283465c-0.00230709,-0.0108346 -0.00092126,-0.015189 0.000204724,-0.0253346 0.00190551,0.0083937 0.000992126,0.00242913 0.00148819,0.0125 0.00119685,0.024248 0.0208425,0.0444213 0.0375315,0.0664409l0.000362205 0.000472441c-0.00240551,9.05512e-005 -0.00461417,0.000744094 -0.00620079,0.00183465z"/>
  <rect class="fil15" x="2.22563" y="3.48964" width="1.22874" height="0.0555291"/>
  <rect class="fil15" x="2.22563" y="4.3815" width="1.22874" height="0.0555291"/>
 </g>
</svg>
