<?xml version="1.0" encoding="UTF-8"?>
<!DOCTYPE svg PUBLIC "-//W3C//DTD SVG 1.1//EN" "http://www.w3.org/Graphics/SVG/1.1/DTD/svg11.dtd">
<!-- Creator: CorelDRAW -->
<svg xmlns="http://www.w3.org/2000/svg" xml:space="preserve" width="6.82666in" height="6.82666in" style="shape-rendering:geometricPrecision; text-rendering:geometricPrecision; image-rendering:optimizeQuality; fill-rule:evenodd; clip-rule:evenodd"
viewBox="0 0 6.82666 6.82666"
 xmlns:xlink="http://www.w3.org/1999/xlink">
 <defs>
  <style type="text/css">
   <![CDATA[
    .fil2 {fill:none}
    .fil11 {fill:#212121}
    .fil6 {fill:#37474F}
    .fil8 {fill:#424242}
    .fil5 {fill:#455A64}
    .fil10 {fill:#4E342E}
    .fil4 {fill:#546E7A}
    .fil9 {fill:#5D4037}
    .fil1 {fill:#7CB342}
    .fil16 {fill:#9E6639}
    .fil0 {fill:#AED581}
    .fil15 {fill:#C48E62}
    .fil13 {fill:#C99366}
    .fil14 {fill:#D99F6F}
    .fil3 {fill:#DBA070}
    .fil12 {fill:#E0E0E0}
    .fil7 {fill:#FAFAFA}
    .fil20 {fill:#3E2723;fill-rule:nonzero}
    .fil19 {fill:#424242;fill-rule:nonzero}
    .fil17 {fill:#4E342E;fill-rule:nonzero}
    .fil18 {fill:#5D4037;fill-rule:nonzero}
   ]]>
  </style>
   <clipPath id="id0">
    <path d="M3.41333 0c1.88513,0 3.41333,1.5282 3.41333,3.41333 0,1.88513 -1.5282,3.41333 -3.41333,3.41333 -1.88513,0 -3.41333,-1.5282 -3.41333,-3.41333 0,-1.88513 1.5282,-3.41333 3.41333,-3.41333z"/>
   </clipPath>
 </defs>
 <g id="Layer_x0020_1">
  <metadata id="CorelCorpID_0Corel-Layer"/>
  <path class="fil0" d="M3.41333 0c1.88513,0 3.41333,1.5282 3.41333,3.41333 0,1.88513 -1.5282,3.41333 -3.41333,3.41333 -1.88513,0 -3.41333,-1.5282 -3.41333,-3.41333 0,-1.88513 1.5282,-3.41333 3.41333,-3.41333z"/>
  <g style="clip-path:url(#id0)">
   <g id="_435564592">
    <g>
     <polygon id="_4312437921" class="fil1" points="4.24655,3.21857 8.03282,7.00485 8.03356,7.01309 8.03408,7.02133 8.03439,7.02956 8.03449,7.03779 8.0344,7.04601 8.03412,7.05423 8.03368,7.06246 8.03308,7.0707 8.03233,7.07894 8.03146,7.0872 8.03045,7.09548 8.02933,7.10377 8.02812,7.11208 8.02681,7.12042 8.02543,7.12879 8.02398,7.13719 8.02248,7.14562 8.02093,7.15409 8.01935,7.1626 8.01776,7.17115 8.01615,7.17974 8.01454,7.18839 8.01295,7.19709 8.01139,7.20583 8.00986,7.21465 8.00839,7.22351 8.00697,7.23244 8.00562,7.24144 8.00436,7.25051 8.00319,7.25965 8.00213,7.26887 8.00119,7.27816 8.00062,7.28362 7.99999,7.28887 7.99929,7.29392 7.99852,7.29874 7.99769,7.30336 7.9968,7.30776 7.99585,7.31194 7.99485,7.31591 4.20858,3.52963 4.20959,3.52567 4.21053,3.52149 4.21143,3.51709 4.21225,3.51247 4.21302,3.50765 4.21372,3.5026 4.21435,3.49735 4.21492,3.49189 4.21586,3.48259 4.21693,3.47338 4.21809,3.46424 4.21935,3.45517 4.2207,3.44617 4.22212,3.43724 4.22359,3.42837 4.22512,3.41956 4.22669,3.41081 4.22828,3.40212 4.22988,3.39347 4.23149,3.38488 4.23309,3.37633 4.23466,3.36781 4.23621,3.35935 4.23771,3.35092 4.23916,3.34252 4.24054,3.33415 4.24185,3.32581 4.24307,3.3175 4.24419,3.3092 4.24519,3.30093 4.24607,3.29267 4.24681,3.28443 4.24741,3.27619 4.24785,3.26796 4.24813,3.25974 4.24822,3.25152 4.24812,3.24329 4.24781,3.23506 4.2473,3.22682 "/>
     <polygon id="_431243816" class="fil1" points="2.6869,2.54039 6.47317,6.32667 6.45265,6.32187 6.43265,6.31691 6.41317,6.31178 6.39423,6.30648 6.37583,6.30102 6.35798,6.29539 6.34069,6.28961 6.32397,6.28366 6.30783,6.27756 6.29227,6.2713 6.27731,6.26488 6.26295,6.25831 6.24921,6.2516 6.23609,6.24473 6.2236,6.23772 6.21175,6.23056 6.20055,6.22326 6.19,6.21581 6.18013,6.20823 6.17093,6.20051 6.16241,6.19266 2.37615,2.40639 2.38466,2.41424 2.39386,2.42196 2.40374,2.42954 2.41428,2.43699 2.42548,2.44429 2.43733,2.45144 2.44982,2.45846 2.46294,2.46533 2.47669,2.47204 2.49104,2.47861 2.506,2.48502 2.52156,2.49128 2.5377,2.49739 2.55443,2.50333 2.57171,2.50912 2.58956,2.51475 2.60796,2.52021 2.62691,2.52551 2.64638,2.53064 2.66638,2.5356 "/>
     <polygon id="_431244512" class="fil1" points="2.09467,2.40253 5.88094,6.1888 5.88472,6.1947 5.88789,6.20134 5.89031,6.20753 5.89187,6.2121 5.89241,6.21388 2.10615,2.42761 2.1056,2.42583 2.10405,2.42126 2.10162,2.41507 2.09845,2.40843 "/>
     <polygon id="_431243888" class="fil1" points="1.82858,2.4243 5.61485,6.21057 5.61863,6.21648 5.6218,6.22311 5.62422,6.2293 5.62577,6.23387 5.62632,6.23565 1.84005,2.44938 1.8395,2.4476 1.83796,2.44303 1.83553,2.43684 1.83236,2.4302 "/>
     <polygon id="_431243936" class="fil1" points="1.57143,2.43916 5.35769,6.22543 5.35957,6.22739 5.3612,6.23013 5.3626,6.23346 5.36378,6.23717 5.36476,6.24105 5.36554,6.24489 5.36615,6.2485 5.36661,6.25167 5.36691,6.25418 5.36708,6.25584 5.36714,6.25644 1.58087,2.47017 1.58081,2.46957 1.58064,2.46791 1.58034,2.4654 1.57989,2.46223 1.57928,2.45862 1.57849,2.45478 1.57751,2.4509 1.57633,2.44719 1.57493,2.44386 1.5733,2.44112 "/>
     <polygon id="_431244944" class="fil1" points="1.58087,2.47017 5.36714,6.25644 5.36726,6.25733 5.36762,6.25995 5.3682,6.26419 5.36899,6.26995 5.36997,6.27715 5.37113,6.28568 5.37245,6.29544 5.37392,6.30634 5.37552,6.31828 5.37724,6.33117 5.37907,6.34489 5.38099,6.35937 5.38299,6.3745 5.38504,6.39018 5.38715,6.40632 5.38928,6.42281 5.39144,6.43957 5.39359,6.45649 5.39574,6.47348 5.39785,6.49044 5.39993,6.50727 5.40195,6.52388 5.4039,6.54016 5.40577,6.55602 5.40754,6.57137 5.40919,6.5861 5.41072,6.60012 5.4121,6.61333 5.41333,6.62563 5.41438,6.63693 5.41525,6.64713 5.41591,6.65613 1.62965,2.86985 1.62898,2.86085 1.62811,2.85066 1.62706,2.83936 1.62583,2.82706 1.62445,2.81385 1.62293,2.79983 1.62127,2.78509 1.6195,2.76975 1.61763,2.75389 1.61568,2.73761 1.61366,2.721 1.61159,2.70417 1.60947,2.68721 1.60732,2.67022 1.60517,2.6533 1.60302,2.63654 1.60088,2.62005 1.59878,2.60391 1.59672,2.58823 1.59472,2.5731 1.59281,2.55862 1.59098,2.54489 1.58926,2.53201 1.58765,2.52007 1.58618,2.50917 1.58486,2.49941 1.5837,2.49088 1.58272,2.48368 1.58193,2.47792 1.58135,2.47368 1.58099,2.47106 "/>
     <polygon id="_431244800" class="fil1" points="2.63522,5.16985 6.42149,8.95612 6.36639,8.95612 2.58012,5.16985 "/>
     <polygon id="_431244632" class="fil1" points="1.62965,2.86985 5.41591,6.65613 5.41748,6.6803 5.41893,6.70408 5.42028,6.72748 5.42154,6.75045 5.4227,6.77299 5.42381,6.79507 5.42485,6.81667 5.42584,6.83778 5.4268,6.85836 5.42773,6.8784 5.42865,6.89789 5.42957,6.91679 5.4305,6.93509 5.43144,6.95277 5.43243,6.96981 5.43345,6.98619 5.43453,7.00189 5.43568,7.01688 5.43691,7.03115 5.43822,7.04469 5.43965,7.05745 5.44118,7.06943 5.44283,7.08061 5.44463,7.09096 5.44657,7.10047 5.44867,7.10911 5.45093,7.11687 5.45339,7.12372 5.45603,7.12965 5.45888,7.13463 5.46195,7.13864 5.46524,7.14167 1.67898,3.35539 1.67568,3.35237 1.67261,3.34835 1.66976,3.34338 1.66712,3.33745 1.66467,3.3306 1.6624,3.32284 1.6603,3.3142 1.65836,3.30469 1.65656,3.29433 1.65491,3.28316 1.65338,3.27118 1.65196,3.25841 1.65064,3.24488 1.64941,3.23061 1.64826,3.21562 1.64718,3.19992 1.64616,3.18354 1.64518,3.1665 1.64423,3.14882 1.6433,3.13052 1.64238,3.11161 1.64146,3.09213 1.64053,3.07209 1.63957,3.0515 1.63858,3.0304 1.63754,3.0088 1.63644,2.98672 1.63527,2.96418 1.63401,2.9412 1.63267,2.91781 1.63121,2.89402 "/>
     <polygon id="_431245112" class="fil1" points="2.58012,5.16985 6.36639,8.95612 6.30691,8.95612 2.52064,5.16985 "/>
     <polygon id="_431244872" class="fil1" points="2.52064,5.16985 6.30691,8.95612 5.90951,8.95612 2.12324,5.16985 "/>
     <polygon id="_431245064" class="fil1" points="2.12324,5.16985 5.90951,8.95612 5.60421,8.95612 1.81794,5.16985 "/>
     <polygon id="_431245304" class="fil1" points="1.95079,3.49243 5.73706,7.2787 5.72341,7.27982 1.93714,3.49355 "/>
     <polygon id="_431245208" class="fil1" points="1.93714,3.49355 5.72341,7.27982 5.66071,7.28494 1.87444,3.49867 "/>
     <polygon id="_431245280" class="fil1" points="1.87444,3.49867 5.66071,7.28494 5.65077,7.28572 5.64086,7.28641 5.63099,7.28698 5.62117,7.28744 5.6114,7.28777 5.6017,7.28795 5.59208,7.28797 5.58255,7.28781 5.57311,7.28746 5.56378,7.28691 5.55457,7.28614 5.54548,7.28514 5.53654,7.2839 5.52773,7.28239 5.51909,7.28061 5.51061,7.27854 5.5023,7.27617 5.49418,7.27348 5.48626,7.27046 5.47854,7.2671 5.47103,7.26338 5.46375,7.25928 5.4567,7.2548 5.4499,7.24992 5.44335,7.24462 1.65709,3.45835 1.66363,3.46365 1.67044,3.46853 1.67748,3.47301 1.68476,3.47711 1.69227,3.48083 1.69999,3.48419 1.70791,3.48721 1.71603,3.4899 1.72434,3.49227 1.73282,3.49434 1.74146,3.49612 1.75027,3.49763 1.75922,3.49887 1.7683,3.49987 1.77751,3.50064 1.78684,3.50119 1.79628,3.50154 1.80581,3.5017 1.81543,3.50168 1.82513,3.5015 1.8349,3.50117 1.84472,3.50071 1.85459,3.50013 1.8645,3.49945 "/>
     <polygon id="_431245352" class="fil1" points="1.84005,2.44938 5.62632,6.23565 5.62654,6.23808 5.62716,6.24517 5.62818,6.25659 5.62955,6.27207 5.63126,6.29128 5.63328,6.31392 5.63557,6.33968 5.63812,6.36827 5.64089,6.39936 5.64387,6.43267 5.64702,6.46787 5.65031,6.50467 5.65372,6.54276 5.65723,6.58184 5.66081,6.62159 5.66443,6.66171 5.66806,6.70191 5.67168,6.74185 5.67526,6.78126 5.67877,6.81981 5.68219,6.85722 5.68549,6.89315 5.68864,6.92731 5.69163,6.95941 5.69441,6.98912 5.69697,7.01615 5.69928,7.04018 5.7013,7.06091 5.70302,7.07805 5.70441,7.09127 5.70544,7.10028 5.70609,7.10476 1.91982,3.31849 1.91918,3.314 1.91815,3.305 1.91676,3.29178 1.91504,3.27464 1.91301,3.25391 1.9107,3.22987 1.90814,3.20285 1.90536,3.17314 1.90237,3.14104 1.89922,3.10688 1.89592,3.07094 1.8925,3.03354 1.88899,2.99499 1.88541,2.95558 1.88179,2.91563 1.87816,2.87544 1.87454,2.83532 1.87096,2.79557 1.86746,2.75649 1.86404,2.7184 1.86075,2.6816 1.8576,2.64639 1.85462,2.61309 1.85185,2.582 1.8493,2.55341 1.84701,2.52765 1.84499,2.50501 1.84328,2.4858 1.84191,2.47032 1.84089,2.45889 1.84027,2.45181 "/>
     <polygon id="_431246048" class="fil1" points="2.10615,2.42761 5.89241,6.21388 5.89263,6.21631 5.89326,6.22339 5.89427,6.23482 5.89565,6.2503 5.89735,6.2695 5.89937,6.29215 5.90166,6.31791 5.90421,6.34649 5.90698,6.37759 5.90996,6.41089 5.91311,6.44609 5.9164,6.4829 5.91982,6.52098 5.92333,6.56006 5.92691,6.59981 5.93052,6.63993 5.93415,6.68013 5.93777,6.72007 5.94135,6.75948 5.94486,6.79804 5.94828,6.83543 5.95158,6.87137 5.95473,6.90554 5.95772,6.93763 5.9605,6.96734 5.96306,6.99436 5.96536,7.0184 5.96739,7.03913 5.96911,7.05627 5.9705,7.06949 5.97153,7.0785 5.97217,7.08298 2.18591,3.29671 2.18526,3.29222 2.18423,3.28322 2.18284,3.27 2.18112,3.25286 2.17909,3.23213 2.17679,3.20809 2.17423,3.18107 2.17145,3.15135 2.16846,3.11926 2.16531,3.0851 2.16201,3.04916 2.15859,3.01176 2.15508,2.97321 2.1515,2.9338 2.14788,2.89385 2.14425,2.85366 2.14064,2.81354 2.13706,2.77379 2.13355,2.73471 2.13013,2.69663 2.12684,2.65982 2.12369,2.62462 2.12072,2.59131 2.11794,2.56022 2.11539,2.53164 2.1131,2.50587 2.11109,2.48323 2.10938,2.46402 2.108,2.44855 2.10699,2.43712 2.10636,2.43004 "/>
     <polygon id="_431246072" class="fil1" points="2.00429,3.71632 5.79056,7.50259 5.78306,7.50115 5.77619,7.49959 5.77006,7.498 5.7648,7.49648 5.7605,7.49513 5.7573,7.49405 5.75529,7.49333 5.7546,7.49307 1.96833,3.7068 1.96902,3.70706 1.97103,3.70778 1.97424,3.70886 1.97853,3.71021 1.9838,3.71172 1.98992,3.71331 1.99679,3.71488 "/>
     <polygon id="_431245448" class="fil1" points="1.85465,3.34541 5.64091,7.13168 5.64091,7.13185 5.6409,7.13202 5.64089,7.13219 5.64089,7.13235 5.64088,7.13251 5.64087,7.13266 5.64086,7.1328 5.64085,7.13294 1.85458,3.34667 1.85459,3.34653 1.8546,3.34639 1.85461,3.34624 1.85462,3.34608 1.85463,3.34592 1.85463,3.34575 1.85464,3.34558 "/>
     <polygon id="_431245424" class="fil1" points="1.91982,3.31849 5.70609,7.10476 5.70748,7.10926 5.70961,7.11344 5.71235,7.11731 5.71557,7.12086 1.9293,3.33459 1.92608,3.33104 1.92335,3.32717 1.92122,3.32299 "/>
     <polygon id="_431246120" class="fil1" points="2.33061,2.40027 6.11688,6.18654 6.1172,6.18895 6.11812,6.19597 6.11961,6.20732 6.1216,6.22271 6.12406,6.24185 6.12695,6.26446 6.1302,6.29024 6.13379,6.31892 6.13766,6.35019 6.14176,6.38377 6.14605,6.41938 6.15048,6.45672 6.15502,6.49552 6.15959,6.53547 6.16418,6.57629 6.16872,6.6177 6.17318,6.6594 6.1775,6.70111 6.18164,6.74254 6.18555,6.78339 6.18919,6.82339 6.19251,6.86225 6.19546,6.89967 6.198,6.93537 6.20008,6.96906 6.20166,7.00046 6.20269,7.02926 6.20312,7.0552 6.2029,7.07797 6.202,7.09729 6.20036,7.11287 6.19794,7.12443 2.41167,3.33816 2.41409,3.3266 2.41573,3.31102 2.41663,3.2917 2.41685,3.26893 2.41642,3.24299 2.41539,3.21419 2.41381,3.18279 2.41173,3.1491 2.40919,3.1134 2.40624,3.07598 2.40292,3.03712 2.39928,2.99712 2.39537,2.95626 2.39123,2.91483 2.38691,2.87313 2.38246,2.83143 2.37791,2.79002 2.37333,2.7492 2.36875,2.70924 2.36422,2.67045 2.35978,2.63311 2.35549,2.5975 2.35139,2.56392 2.34752,2.53265 2.34394,2.50397 2.34068,2.47819 2.3378,2.45558 2.33533,2.43644 2.33334,2.42105 2.33185,2.4097 2.33093,2.40268 "/>
     <polygon id="_431245520" class="fil1" points="4.51781,5.16985 8.30408,8.95612 8.24899,8.95612 4.46272,5.16985 "/>
     <polygon id="_431245592" class="fil1" points="2.12074,3.32361 5.90701,7.10989 5.907,7.11006 5.907,7.11024 5.90699,7.1104 5.90698,7.11057 5.90697,7.11072 5.90696,7.11088 5.90695,7.11102 5.90694,7.11117 2.12067,3.32489 2.12069,3.32475 2.12069,3.32461 2.1207,3.32445 2.12071,3.3243 2.12072,3.32413 2.12073,3.32396 2.12073,3.32379 "/>
     <polygon id="_431245688" class="fil1" points="2.18591,3.29671 5.97217,7.08298 5.97341,7.08708 5.97526,7.09092 5.97763,7.0945 5.98043,7.09781 5.98356,7.10087 2.19729,3.3146 2.19416,3.31154 2.19136,3.30822 2.18899,3.30465 2.18714,3.30081 "/>
     <polygon id="_431245664" class="fil1" points="2.31534,2.38031 6.10161,6.16658 6.1059,6.17087 6.11097,6.17743 6.11688,6.18654 2.33061,2.40027 2.3247,2.39116 2.31963,2.3846 "/>
     <polygon id="_431245928" class="fil1" points="4.46272,5.16985 8.24899,8.95612 8.24899,8.96433 4.46272,5.17806 "/>
     <polygon id="_431245712" class="fil1" points="2.34335,3.30295 6.12962,7.08922 6.1295,7.08986 6.12938,7.09049 6.12926,7.09111 6.12914,7.09172 6.12901,7.09231 6.12888,7.09291 6.12875,7.09348 6.12862,7.09405 2.34235,3.30778 2.34248,3.30721 2.34261,3.30663 2.34274,3.30604 2.34287,3.30544 2.34299,3.30484 2.34311,3.30422 2.34323,3.30359 "/>
     <polygon id="_431246168" class="fil1" points="2.41167,3.33816 6.19794,7.12443 6.19696,7.1276 6.19593,7.13071 6.19486,7.13378 6.19373,7.13678 6.19256,7.13974 6.19135,7.14265 6.19009,7.1455 6.18878,7.14831 6.18743,7.15106 6.18604,7.15377 6.18461,7.15643 6.18313,7.15903 6.18161,7.16159 6.18006,7.16411 6.17846,7.16658 6.17682,7.169 2.39055,3.38273 2.39219,3.38031 2.39379,3.37784 2.39535,3.37532 2.39686,3.37276 2.39834,3.37015 2.39978,3.3675 2.40117,3.36479 2.40252,3.36204 2.40382,3.35923 2.40508,3.35637 2.4063,3.35347 2.40746,3.35051 2.40859,3.3475 2.40967,3.34444 2.41069,3.34133 "/>
     <polygon id="_431246672" class="fil1" points="2.90026,3.53109 6.68653,7.31736 6.68587,7.31735 2.8996,3.53107 "/>
     <polygon id="_431246744" class="fil1" points="2.9457,3.53184 6.73197,7.31811 6.72915,7.32545 6.72624,7.33175 6.72325,7.33702 6.7202,7.34128 6.71712,7.34452 6.71402,7.34678 6.71093,7.34805 6.70786,7.34836 6.70483,7.3477 6.70187,7.34611 6.69899,7.34358 2.91272,3.55731 2.9156,3.55984 2.91857,3.56143 2.92159,3.56209 2.92466,3.56178 2.92776,3.5605 2.93085,3.55825 2.93393,3.555 2.93698,3.55075 2.93997,3.54548 2.94289,3.53918 "/>
     <polygon id="_431246600" class="fil1" points="2.39055,3.38273 6.17682,7.169 6.17274,7.1752 6.16841,7.18112 6.16382,7.18674 6.159,7.19209 6.15394,7.19717 6.14866,7.20199 6.14317,7.20656 6.13746,7.21088 6.13155,7.21496 6.12544,7.21881 6.11915,7.22243 6.11267,7.22584 6.10603,7.22905 6.09922,7.23205 6.09225,7.23486 6.08513,7.23749 6.07787,7.23994 6.07047,7.24222 6.06294,7.24433 6.0553,7.2463 6.04754,7.24812 6.03968,7.2498 6.03172,7.25135 6.02367,7.25278 6.01553,7.2541 6.00732,7.2553 5.99904,7.25641 5.9907,7.25743 5.98231,7.25836 5.97388,7.25921 5.9654,7.26 5.9569,7.26072 2.17063,3.47445 2.17913,3.47373 2.18761,3.47294 2.19605,3.47209 2.20444,3.47115 2.21278,3.47014 2.22105,3.46903 2.22926,3.46783 2.2374,3.46651 2.24545,3.46508 2.25341,3.46353 2.26127,3.46185 2.26903,3.46003 2.27668,3.45806 2.2842,3.45594 2.2916,3.45367 2.29886,3.45122 2.30598,3.44859 2.31295,3.44578 2.31976,3.44278 2.32641,3.43957 2.33288,3.43616 2.33917,3.43254 2.34528,3.42869 2.35119,3.42461 2.3569,3.42029 2.36239,3.41572 2.36768,3.4109 2.37273,3.40582 2.37756,3.40047 2.38214,3.39485 2.38647,3.38893 "/>
     <polygon id="_431246624" class="fil1" points="2.17063,3.47445 5.9569,7.26072 5.89188,7.26604 2.10561,3.47977 "/>
     <polygon id="_431246888" class="fil1" points="2.10561,3.47977 5.89188,7.26604 5.9079,7.4751 2.12163,3.68883 "/>
     <polygon id="_431246192" class="fil1" points="2.12163,3.68883 5.9079,7.4751 5.90783,7.47514 5.90763,7.47526 5.9073,7.47545 5.90683,7.47571 5.90625,7.47604 5.90555,7.47643 5.90472,7.47687 5.90379,7.47738 2.11752,3.69111 2.11846,3.6906 2.11928,3.69016 2.11998,3.68976 2.12057,3.68944 2.12103,3.68918 2.12136,3.68898 2.12157,3.68887 "/>
     <polygon id="_431246240" class="fil1" points="2.11752,3.69111 5.90379,7.47738 5.90407,7.48085 2.1178,3.69457 "/>
     <polygon id="_431246456" class="fil1" points="2.1178,3.69457 5.90407,7.48085 5.90367,7.48108 5.90249,7.48175 5.90059,7.48279 5.898,7.48416 5.89479,7.48578 5.89099,7.48761 5.88665,7.4896 5.88182,7.49167 2.09555,3.7054 2.10038,3.70333 2.10472,3.70134 2.10852,3.69951 2.11174,3.69789 2.11432,3.69652 2.11622,3.69548 2.1174,3.69481 "/>
     <polygon id="_431247680" class="fil1" points="2.09555,3.7054 5.88182,7.49167 5.92056,7.96515 2.1343,4.17888 "/>
     <polygon id="_431246960" class="fil1" points="4.46272,5.17806 8.24899,8.96433 6.42149,8.96433 2.63522,5.17806 "/>
     <polygon id="_431246936" class="fil1" points="2.94633,3.53185 6.73259,7.31812 6.73197,7.31811 2.9457,3.53184 "/>
     <polygon id="_431247272" class="fil1" points="3.02009,3.61235 6.80636,7.39863 6.80122,7.4043 6.79609,7.40784 6.79097,7.40942 6.78589,7.40916 6.78085,7.40723 6.77587,7.40377 2.98961,3.6175 2.99458,3.62096 2.99962,3.62289 3.0047,3.62315 3.00982,3.62157 3.01495,3.61803 "/>
     <polygon id="_431247008" class="fil1" points="3.02184,3.60914 6.80811,7.39541 6.80791,7.39588 6.80771,7.39633 6.8075,7.39676 6.80728,7.39717 6.80706,7.39756 6.80683,7.39794 6.8066,7.39829 6.80636,7.39863 3.02009,3.61235 3.02033,3.61202 3.02057,3.61167 3.0208,3.61129 3.02102,3.6109 3.02123,3.61049 3.02144,3.61006 3.02164,3.60961 "/>
     <polygon id="_431247464" class="fil1" points="2.82304,3.11545 6.60931,6.90172 6.60282,6.9036 6.59739,6.90413 6.59295,6.9034 6.58944,6.90152 2.80317,3.11524 2.80668,3.11713 2.81112,3.11785 2.81656,3.11733 "/>
     <polygon id="_431247032" class="fil1" points="4.57727,5.16985 8.36354,8.95612 8.30408,8.95612 4.51781,5.16985 "/>
     <polygon id="_431247128" class="fil1" points="2.8609,3.16315 6.64717,6.94942 6.64516,6.94842 6.6428,6.9481 6.6401,6.94813 6.63711,6.94816 6.63385,6.94783 6.63036,6.94681 6.62668,6.94474 6.62283,6.94128 2.83656,3.15501 2.84041,3.15846 2.84409,3.16054 2.84758,3.16156 2.85084,3.16189 2.85383,3.16186 2.85653,3.16183 2.85889,3.16215 "/>
     <polygon id="_431248208" class="fil1" points="2.81,3.04 6.59626,6.82628 6.5918,6.82426 6.58733,6.82183 6.58286,6.81901 6.57839,6.81579 6.57393,6.8122 6.56948,6.80822 6.56505,6.80388 2.77878,3.01761 2.78321,3.02195 2.78766,3.02593 2.79212,3.02952 2.79659,3.03274 2.80106,3.03556 2.80554,3.03798 "/>
     <polygon id="_431248280" class="fil1" points="5.28,5.16985 9.06626,8.95612 8.36354,8.95612 4.57727,5.16985 "/>
     <polygon id="_431248136" class="fil1" points="4.20858,3.52963 7.99485,7.31591 7.99512,7.31735 4.20885,3.53107 "/>
     <polygon id="_431248064" class="fil1" points="4.01785,1.72143 7.80412,5.5077 7.8061,5.50998 7.80814,5.51258 7.81023,5.51548 7.81236,5.51867 7.81454,5.52214 7.81676,5.52589 7.81902,5.5299 7.82131,5.53416 7.82365,5.53867 7.82601,5.54342 7.8284,5.54839 7.83082,5.55358 7.83327,5.55898 7.83574,5.56458 7.83823,5.57037 7.84074,5.57633 7.84326,5.58248 7.84579,5.58878 7.84834,5.59524 7.85089,5.60184 7.85345,5.60858 7.85602,5.61544 7.85858,5.62243 7.86114,5.62952 7.8637,5.6367 7.86626,5.64398 7.8688,5.65133 7.87133,5.65876 7.87385,5.66625 7.87635,5.67379 7.87884,5.68137 7.88131,5.68899 4.09504,1.90272 4.09257,1.8951 4.09009,1.88752 4.08758,1.87998 4.08506,1.87249 4.08253,1.86506 4.07999,1.8577 4.07743,1.85043 4.07487,1.84324 4.07231,1.83615 4.06975,1.82917 4.06719,1.82231 4.06462,1.81557 4.06207,1.80897 4.05952,1.80251 4.05699,1.7962 4.05447,1.79006 4.05196,1.78409 4.04947,1.77831 4.047,1.7727 4.04456,1.76731 4.04213,1.76212 4.03974,1.75715 4.03738,1.7524 4.03505,1.74789 4.03275,1.74363 4.03049,1.73962 4.02827,1.73587 4.02609,1.7324 4.02396,1.72921 4.02187,1.72631 4.01983,1.72371 "/>
     <polygon id="_431248400" class="fil1" points="4.09504,1.90272 7.88131,5.68899 7.8838,5.6968 7.88629,5.70466 7.88876,5.71256 7.89121,5.72048 7.89364,5.72842 7.89605,5.73636 7.89843,5.7443 7.90077,5.75222 7.90309,5.76011 7.90536,5.76795 7.9076,5.77575 7.90979,5.78348 7.91194,5.79114 7.91404,5.7987 7.91609,5.80618 7.91807,5.81354 7.92001,5.82078 7.92188,5.82789 7.92369,5.83486 7.92542,5.84167 7.92709,5.84832 7.92868,5.85479 7.93019,5.86107 7.93163,5.86715 7.93298,5.87302 7.93424,5.87867 7.93542,5.88408 7.9365,5.88924 7.93749,5.89415 7.93837,5.8988 7.93916,5.90316 7.93984,5.90723 4.15357,2.12096 4.15289,2.11689 4.15211,2.11252 4.15122,2.10788 4.15023,2.10297 4.14915,2.09781 4.14798,2.09239 4.14671,2.08675 4.14536,2.08088 4.14393,2.0748 4.14241,2.06852 4.14082,2.06205 4.13915,2.0554 4.13742,2.04859 4.13561,2.04162 4.13374,2.03451 4.13181,2.02727 4.12982,2.01991 4.12777,2.01243 4.12567,2.00487 4.12352,1.99721 4.12133,1.98948 4.11909,1.98168 4.11682,1.97383 4.1145,1.96594 4.11216,1.95803 4.10978,1.95009 4.10737,1.94215 4.10494,1.93421 4.10249,1.92628 4.10002,1.91839 4.09754,1.91053 "/>
     <polygon id="_431248424" class="fil1" points="4.7598,2.22586 8.54607,6.01213 8.55144,6.01871 8.55636,6.02539 8.56083,6.03218 8.56485,6.03907 8.56842,6.04606 8.57152,6.05315 8.57415,6.06033 8.57632,6.06762 8.57801,6.075 8.57922,6.08249 8.57996,6.09007 8.5802,6.09774 4.79393,2.31147 4.79369,2.3038 4.79296,2.29622 4.79174,2.28873 4.79005,2.28135 4.78789,2.27406 4.78525,2.26687 4.78215,2.25979 4.77859,2.2528 4.77457,2.24591 4.77009,2.23912 4.76517,2.23244 "/>
     <polygon id="_431247776" class="fil1" points="4.79393,2.31147 8.5802,6.09774 8.57976,6.10744 8.57847,6.11702 8.57631,6.12646 8.57332,6.13577 8.56949,6.14495 8.56484,6.15398 8.55938,6.16289 8.55312,6.17164 8.54606,6.18026 8.53823,6.18872 8.52962,6.19704 8.52026,6.20522 8.51014,6.21324 8.49929,6.2211 8.4877,6.22881 8.4754,6.23637 8.46239,6.24376 8.44868,6.25099 8.43428,6.25806 8.4192,6.26496 8.40346,6.27169 8.38707,6.27825 8.37002,6.28465 8.35234,6.29086 8.33404,6.2969 8.31511,6.30276 8.29558,6.30844 8.27546,6.31394 8.25476,6.31925 8.23348,6.32438 8.21163,6.32931 8.18924,6.33406 4.40297,2.54779 4.42537,2.54304 4.44721,2.53811 4.46849,2.53298 4.4892,2.52767 4.50931,2.52217 4.52884,2.51649 4.54777,2.51063 4.56607,2.50459 4.58375,2.49837 4.6008,2.49198 4.6172,2.48542 4.63294,2.47869 4.64801,2.47179 4.66241,2.46472 4.67612,2.45749 4.68913,2.45009 4.70143,2.44254 4.71302,2.43483 4.72387,2.42696 4.73399,2.41894 4.74335,2.41077 4.75196,2.40245 4.7598,2.39398 4.76685,2.38537 4.77311,2.37661 4.77857,2.36771 4.78322,2.35868 4.78705,2.3495 4.79005,2.34019 4.7922,2.33075 4.7935,2.32117 "/>
     <polygon id="_431247920" class="fil1" points="4.40297,2.54779 8.18924,6.33406 8.1908,6.34029 8.19227,6.3467 8.19364,6.35328 8.19491,6.36002 8.19607,6.36693 8.19713,6.37399 8.19809,6.3812 8.19894,6.38856 8.19969,6.39606 8.20034,6.40369 8.20087,6.41146 8.20131,6.41934 8.20163,6.42735 8.20184,6.43547 8.20195,6.4437 8.20195,6.45203 8.20183,6.46046 8.20161,6.46898 8.20127,6.47759 8.20082,6.48628 8.20026,6.49505 8.19958,6.50389 8.19879,6.51279 8.19789,6.52176 8.19687,6.53078 8.19572,6.53984 8.19447,6.54896 8.19309,6.55811 8.1916,6.5673 8.18999,6.57652 8.18826,6.58576 8.18641,6.59501 4.40014,2.80874 4.40199,2.79948 4.40372,2.79024 4.40533,2.78103 4.40683,2.77184 4.4082,2.76269 4.40946,2.75357 4.4106,2.7445 4.41162,2.73548 4.41252,2.72652 4.41331,2.71761 4.41399,2.70878 4.41456,2.70001 4.415,2.69132 4.41534,2.68271 4.41557,2.67419 4.41568,2.66576 4.41568,2.65743 4.41557,2.6492 4.41536,2.64108 4.41504,2.63307 4.41461,2.62519 4.41407,2.61742 4.41343,2.60979 4.41268,2.60229 4.41182,2.59493 4.41087,2.58772 4.4098,2.58065 4.40864,2.57375 4.40737,2.567 4.406,2.56043 4.40454,2.55402 "/>
     <polygon id="_431247968" class="fil1" points="4.40014,2.80874 8.18641,6.59501 8.18427,6.60504 8.18202,6.61491 8.17967,6.62462 8.17722,6.63417 8.17468,6.64355 8.17204,6.65276 8.1693,6.66179 8.16648,6.67063 8.16358,6.6793 8.1606,6.68777 8.15754,6.69605 8.1544,6.70412 8.1512,6.712 8.14792,6.71966 8.14459,6.7271 8.14119,6.73433 8.13773,6.74133 8.13422,6.74811 8.13065,6.75465 8.12704,6.76096 8.12339,6.76702 8.11969,6.77284 8.11596,6.7784 8.11219,6.78371 8.10839,6.78876 8.10456,6.79354 8.1007,6.79805 8.09682,6.80228 8.09293,6.80624 8.08902,6.80991 8.0851,6.81329 8.08117,6.81638 4.2949,3.03011 4.29883,3.02702 4.30275,3.02364 4.30666,3.01996 4.31056,3.01601 4.31443,3.01178 4.31829,3.00726 4.32212,3.00248 4.32592,2.99744 4.32969,2.99213 4.33342,2.98657 4.33712,2.98075 4.34078,2.97469 4.34439,2.96838 4.34795,2.96184 4.35146,2.95506 4.35492,2.94806 4.35832,2.94083 4.36165,2.93339 4.36493,2.92572 4.36813,2.91785 4.37127,2.90978 4.37433,2.9015 4.37731,2.89303 4.38022,2.88436 4.38304,2.87552 4.38577,2.86648 4.38841,2.85728 4.39096,2.84789 4.39341,2.83835 4.39576,2.82863 4.398,2.81876 "/>
     <polygon id="_431248160" class="fil1" points="4.2949,3.03011 8.08117,6.81638 8.0841,6.82449 8.08694,6.83283 8.08961,6.84128 8.09203,6.84971 8.09412,6.85798 8.09579,6.86596 8.09696,6.87354 8.09756,6.88056 8.09749,6.88692 8.09669,6.89248 8.09505,6.8971 8.09252,6.90066 8.08899,6.90304 8.0844,6.90409 8.07865,6.9037 8.07168,6.90172 4.28541,3.11545 4.29239,3.11743 4.29813,3.11782 4.30272,3.11676 4.30625,3.11439 4.30878,3.11083 4.31042,3.1062 4.31122,3.10065 4.31129,3.09429 4.3107,3.08726 4.30952,3.07969 4.30785,3.07171 4.30576,3.06344 4.30335,3.05501 4.30067,3.04656 4.29783,3.03822 "/>
     <polygon id="_436473592" class="fil1" points="4.28541,3.11545 8.07168,6.90172 8.072,6.90636 8.07202,6.91097 8.07167,6.91551 8.07089,6.91996 8.06961,6.92427 8.06777,6.92842 8.0653,6.93237 8.06213,6.93608 4.27587,3.14981 4.27903,3.14609 4.2815,3.14215 4.28335,3.138 4.28463,3.13369 4.28541,3.12924 4.28575,3.1247 4.28573,3.12009 "/>
     <polygon id="_436473736" class="fil1" points="4.27587,3.14981 8.06213,6.93608 8.05816,6.94128 8.05431,6.94474 8.05063,6.94681 8.04714,6.94783 8.04388,6.94816 8.04089,6.94813 8.03819,6.9481 8.03583,6.94842 8.03382,6.94942 8.03222,6.95146 8.03104,6.95488 8.03033,6.96003 8.03012,6.96726 8.03044,6.9769 8.03133,6.98931 8.03282,7.00485 4.24655,3.21857 4.24506,3.20304 4.24418,3.19063 4.24385,3.18098 4.24407,3.17376 4.24478,3.16861 4.24595,3.16519 4.24756,3.16315 4.24956,3.16215 4.25193,3.16183 4.25462,3.16186 4.25761,3.16189 4.26087,3.16156 4.26436,3.16054 4.26804,3.15846 4.27189,3.15501 "/>
     <polygon id="_436473928" class="fil1" points="4.99236,4.20498 8.77863,7.99125 8.78157,7.99439 8.7845,7.99765 8.7874,8.00099 8.79029,8.00444 8.79316,8.00799 8.79601,8.01163 8.79885,8.01537 8.80166,8.01921 8.80446,8.02314 8.80724,8.02717 8.81,8.03128 8.81274,8.03549 8.81547,8.03979 8.81819,8.04419 8.82088,8.04866 8.82356,8.05323 8.82622,8.05789 8.82886,8.06263 8.83149,8.06745 8.83411,8.07237 8.8367,8.07736 8.83928,8.08244 8.84185,8.0876 8.8444,8.09284 8.84693,8.09816 8.84945,8.10356 8.85196,8.10904 8.85444,8.11459 5.06818,4.32832 5.06569,4.32276 5.06319,4.31729 5.06067,4.31189 5.05813,4.30657 5.05558,4.30133 5.05302,4.29617 5.05043,4.29109 5.04784,4.28609 5.04522,4.28118 5.04259,4.27635 5.03995,4.27161 5.03729,4.26696 5.03461,4.26239 5.03192,4.25791 5.0292,4.25352 5.02648,4.24922 5.02373,4.24501 5.02097,4.24089 5.01819,4.23687 5.01539,4.23294 5.01258,4.2291 5.00974,4.22536 5.00689,4.22172 5.00402,4.21817 5.00113,4.21472 4.99823,4.21137 4.9953,4.20812 "/>
     <polygon id="_436473616" class="fil1" points="4.20885,3.53107 7.99512,7.31735 7.99446,7.31736 4.20819,3.53109 "/>
     <polygon id="_436473304" class="fil1" points="4.16275,3.53184 7.94902,7.31811 7.9484,7.31812 4.16213,3.53185 "/>
     <polygon id="_436473880" class="fil1" points="4.08661,3.60914 7.87288,7.39541 7.87033,7.39919 7.86774,7.40299 7.8651,7.40681 7.86242,7.41065 7.85971,7.41447 7.85698,7.41827 7.85422,7.42203 7.85145,7.42574 7.84868,7.42939 7.84589,7.43296 7.84311,7.43643 7.84034,7.4398 7.83759,7.44305 7.83485,7.44616 7.83214,7.44912 7.82946,7.45192 4.04319,3.66565 4.04587,3.66285 4.04858,3.65989 4.05132,3.65678 4.05407,3.65353 4.05685,3.65016 4.05963,3.64669 4.06241,3.64312 4.06519,3.63947 4.06796,3.63576 4.07071,3.632 4.07344,3.6282 4.07615,3.62437 4.07883,3.62054 4.08147,3.61672 4.08407,3.61291 "/>
     <polygon id="_436473976" class="fil1" points="4.16213,3.53185 7.9484,7.31812 7.94481,7.32862 7.94103,7.33909 7.93706,7.34938 7.9329,7.35934 7.92859,7.36882 7.92413,7.37767 7.91954,7.38574 7.91483,7.39287 7.91002,7.39894 7.90511,7.40377 7.90014,7.40723 7.8951,7.40916 7.89002,7.40942 7.8849,7.40784 7.87977,7.4043 4.0935,3.61803 4.09863,3.62157 4.10375,3.62315 4.10883,3.62289 4.11387,3.62096 4.11885,3.6175 4.12375,3.61267 4.12856,3.6066 4.13327,3.59946 4.13786,3.59139 4.14232,3.58255 4.14663,3.57307 4.15079,3.56311 4.15476,3.55282 4.15855,3.54235 "/>
     <polygon id="_436473784" class="fil1" points="4.20819,3.53109 7.99446,7.31736 7.99229,7.32437 7.98994,7.33052 7.98743,7.33577 7.98478,7.34013 7.982,7.34358 7.97912,7.34611 7.97615,7.3477 7.97313,7.34836 7.97006,7.34805 7.96696,7.34678 7.96387,7.34452 4.1776,3.55825 4.1807,3.5605 4.18379,3.56178 4.18686,3.56209 4.18989,3.56143 4.19285,3.55984 4.19573,3.55731 4.19851,3.55386 4.20116,3.5495 4.20367,3.54424 4.20602,3.5381 "/>
     <polygon id="_436473496" class="fil1" points="4.26024,3.73 8.04651,7.51627 8.04651,7.55128 4.26024,3.76501 "/>
     <polygon id="_436473448" class="fil1" points="4.32336,3.79546 8.10963,7.58174 8.10952,7.58188 8.10941,7.58202 8.1093,7.58217 8.10919,7.58231 8.10907,7.58245 8.10897,7.58259 8.10886,7.58274 8.10875,7.58287 4.32248,3.7966 4.32259,3.79646 4.3227,3.79632 4.32281,3.79618 4.32292,3.79604 4.32303,3.7959 4.32314,3.79575 4.32325,3.79561 "/>
     <polygon id="_436474264" class="fil1" points="5.06818,4.32832 8.85444,8.11459 8.86262,8.1336 8.87064,8.15342 8.8785,8.17401 8.88622,8.19535 8.89381,8.21739 8.90126,8.24011 8.90857,8.26346 8.91577,8.28742 8.92285,8.31195 8.92982,8.33702 8.93668,8.3626 8.94344,8.38864 8.95011,8.41512 8.95669,8.44201 8.96318,8.46926 8.9696,8.49685 8.97594,8.52473 8.98222,8.55289 8.98844,8.58128 8.9946,8.60986 9.00071,8.63861 9.00678,8.6675 9.01281,8.69648 9.0188,8.72552 9.02477,8.7546 9.03072,8.78367 9.03665,8.8127 9.04257,8.84167 9.04849,8.87052 9.05441,8.89924 9.06033,8.92778 9.06626,8.95612 5.28,5.16985 5.27406,5.14151 5.26814,5.11296 5.26222,5.08425 5.2563,5.05539 5.25039,5.02643 5.24445,4.9974 5.2385,4.96833 5.23254,4.93925 5.22654,4.9102 5.22051,4.88122 5.21444,4.85234 5.20833,4.82359 5.20217,4.795 5.19595,4.76661 5.18968,4.73846 5.18333,4.71057 5.17691,4.68299 5.17042,4.65574 5.16384,4.62885 5.15718,4.60237 5.15041,4.57633 5.14355,4.55075 5.13658,4.52568 5.1295,4.50115 5.12231,4.47719 5.11499,4.45383 5.10754,4.43112 5.09996,4.40907 5.09224,4.38774 5.08437,4.36715 5.07635,4.34733 "/>
    </g>
    <path id="_435564472" class="fil1" d="M4.32248 3.7966c0.434398,0.212283 0.586528,0.333622 0.657909,0.396811 0.0323228,0.0286024 0.0613071,0.075248 0.0877835,0.134906 0.0880472,0.198339 0.148425,0.540496 0.211819,0.841528l-0.702728 0 -0.0594567 3.93701e-006 -0.0550906 -3.93701e-006 0 0.00821654 -1.8275 0 0 -0.0082126 -0.0551024 0 -0.0594803 -3.93701e-006 -0.397398 0 -0.305299 0c0.0633937,-0.301035 0.123752,-0.643189 0.211811,-0.841528 0.00684252,-0.0154291 0.0138543,-0.0299843 0.0210551,-0.0435827l-0.0465197 -0.568413c-0.020752,-0.0036063 -0.0359606,-0.00952362 -0.0359606,-0.00952362l-0.0175433 -0.214366 -0.0136496 0.00111417 -0.0626929 0.00512598c-0.106146,0.00870079 -0.209055,0.00429528 -0.25526,-0.0902244 -0.0255945,-0.052315 -0.0291811,-0.31637 -0.0415,-0.55772 -0.00992126,-0.194693 -0.0310236,-0.38087 -0.0310236,-0.38087 0.00427559,-0.0106575 0.00798031,-0.0174646 0.011185,-0.0214291 0.0185906,-0.0322913 0.0230236,0.0217402 0.0230236,0.0217402 0,0 0.0427953,0.310433 0.0487756,0.399685 0.0173937,0.259724 0.0129291,0.458606 0.0493307,0.485539 0.0063937,0.00473622 0.0766339,0.00252362 0.169406,-0.00319291 0.00216929,-0.00225197 0.00426772,-0.00454724 0.00626378,-0.00679528 -1.5748e-005,0.000468504 -3.93701e-005,0.000901575 -6.29921e-005,0.00126772 0.00367717,-0.00459449 0.0064685,-0.00887795 0.00752756,-0.0122795 0.00452756,-0.0147677 -0.0571457,-0.873831 -0.0571457,-0.873831 0,0 -0.0069685,-0.0163661 0.00564173,-0.0317087 0.00109055,-0.00206299 0.00248031,-0.00414961 0.00423228,-0.00621654 0.0131102,-0.0154764 0.0252126,0.0267441 0.0252126,0.0267441 0,0 0.0750315,0.846457 0.0797717,0.86911 0.00261811,0.0124173 0.0144528,0.0214685 0.0246417,0.027126 0.055815,-0.00416142 0.114291,-0.00902756 0.168949,-0.0140748 0.00253543,-0.00262205 0.00500787,-0.00528346 0.00732677,-0.00792913 -1.5748e-005,0.000476378 -3.93701e-005,0.000913386 -6.69291e-005,0.00127953 0.00368504,-0.00459449 0.00648031,-0.00888189 0.00751575,-0.0122717 0.00454724,-0.0147598 -0.0570984,-0.873835 -0.0570984,-0.873835 0,0 -0.00698819,-0.0163425 0.00558268,-0.0316654 0.00109843,-0.00207874 0.0025,-0.00417717 0.00427953,-0.00625591 0.0130748,-0.0154764 0.0251929,0.0267441 0.0251929,0.0267441 0,0 0.0750315,0.846441 0.0797598,0.869102 0.00238189,0.0112677 0.0123622,0.0197835 0.0217913,0.0254803 0.0676102,-0.00722835 0.119146,-0.0141535 0.135654,-0.0192402 -0.000311024,0.00171654 -0.000641732,0.00332677 -0.000996063,0.00482283 0.00125984,-0.000507874 0.00212598,-0.000992126 0.00257087,-0.00145276 0.0315315,-0.0325039 -0.0186417,-0.54126 -0.0259685,-0.630413l-0.0211772 -0.258976c0,0 -0.00238189,-0.0288898 0.00557087,-0.0331732 0.00302756,-0.00935827 0.0103189,-0.0114055 0.0272638,0.0165118 0,0 0.111228,0.837114 0.0810551,0.937886 -0.00508661,0.0170433 -0.0122835,0.0317717 -0.0211181,0.0445709 -0.0421339,0.0677717 -0.129067,0.0842835 -0.219921,0.0917244l-0.0650197 0.0053189 0.0160236 0.209055c0,0 -0.0014685,0.000870079 -0.00411417,0.00227953l0.000283465 0.0034685c0,0 -0.00875591,0.00521654 -0.022252,0.0108268l0.0387441 0.473476c0.0820787,-0.0698543 0.257894,-0.198894 0.703406,-0.41289l0 -0.0176772c0.0550354,-0.0266535 0.11302,-0.0480748 0.17348,-0.063622 0.0164961,-0.00755118 0.0332913,-0.0151929 0.0503937,-0.0229252 -0.0132047,-0.0143504 -0.0274409,-0.0343346 -0.0397362,-0.052622 -0.000515748,0.00126772 -0.00109449,0.00235039 -0.00174803,0.0032126 -0.027374,0.0361811 -0.0552362,-0.0246811 -0.0737638,-0.0805039l-0.000622047 -7.87402e-006c-0.014752,0.041937 -0.0343976,0.0389646 -0.0454449,-0.000755906l-0.00065748 -1.1811e-005 0.000267717 -0.00144094c-0.00274409,-0.0102795 -0.00493307,-0.0228976 -0.00633465,-0.037748 -0.00940551,-0.0995512 -0.0408346,-0.185264 -0.0316339,-0.273311 0.00958661,-0.091752 -0.00783071,-0.0358031 -0.029315,-0.0687638 -0.00942913,-0.00956693 -0.010748,-0.0219803 -0.00954331,-0.0343583 -0.0375472,0.0138189 -0.0272323,-0.0345591 -0.0130472,-0.0754488 -0.0475472,-0.019378 -0.0970866,-0.108917 -0.122331,-0.231264 -0.0211969,-0.102614 -0.0200276,-0.202894 -0.000767717,-0.268346 -0.221547,-0.0502087 -0.356673,-0.129764 -0.356673,-0.228921 0,-0.0820276 0.0826654,-0.147776 0.225823,-0.193933 0.108406,-0.0349528 0.240157,0.0108819 0.414528,0.00355512 0.00626378,-0.041063 0.0289173,-0.136697 0.0523346,-0.221386 0.0226693,-0.0820039 0.0483622,-0.159331 0.0655197,-0.180768 0.0747638,-0.0933937 0.154728,-0.0755118 0.271173,-0.0494685 0.0551811,0.0123425 0.121878,0.0272598 0.202476,0.0272598 0.0743228,0 0.136661,-0.0124528 0.188642,-0.0228346 0.11187,-0.0223465 0.188728,-0.0376969 0.26713,0.0475276 0.0209016,0.0227205 0.0510118,0.0998858 0.077189,0.181295 0.026685,0.0829882 0.0518543,0.176394 0.0585315,0.21824 0.162831,-0.00150394 0.312335,-0.0359961 0.411799,-0.0042126 0.144835,0.0462835 0.228563,0.112335 0.228563,0.194724 0,0.104173 -0.14915,0.186713 -0.390965,0.236319 0.0172559,0.0654685 0.0175827,0.162126 -0.00283071,0.260949 -0.0222244,0.10772 -0.0632835,0.190008 -0.105236,0.221366 0.0157205,0.0424134 0.0311457,0.100299 -0.00949213,0.0853465 0.00120472,0.012378 -0.000114173,0.0247913 -0.00954331,0.0343583 -0.0214843,0.0329606 -0.0389016,-0.0229882 -0.029315,0.0687638 0.00920472,0.0880472 -0.0222283,0.17376 -0.0316339,0.273311 -0.00140157,0.0148504 -0.00359055,0.0274685 -0.00633465,0.037748l0.000267717 0.00144094 -0.00065748 1.1811e-005c-0.0110472,0.0397205 -0.0306929,0.0426929 -0.0454449,0.000755906l-0.00061811 7.87402e-006c-0.0185315,0.0558228 -0.0463937,0.116685 -0.0737677,0.0805039 -0.000653543,-0.000862205 -0.00123228,-0.00194488 -0.00174803,-0.0032126 -0.0134449,0.02 -0.0292205,0.0420394 -0.0434252,0.0565039 0.00601181,0.00271654 0.0119843,0.00542126 0.0179173,0.00811417l0 -0.00242126c0.068815,0.0126102 0.135528,0.032437 0.199134,0.0586575l0 0.0350157c0.0216693,0.0103504 0.0426772,0.0204921 0.063122,0.0304528 -0.000295276,0.000385827 -0.000594488,0.000767717 -0.000877953,0.0011378z"/>
   </g>
  </g>
  <path class="fil2" d="M3.41333 0c1.88513,0 3.41333,1.5282 3.41333,3.41333 0,1.88513 -1.5282,3.41333 -3.41333,3.41333 -1.88513,0 -3.41333,-1.5282 -3.41333,-3.41333 0,-1.88513 1.5282,-3.41333 3.41333,-3.41333z"/>
  <path class="fil3" d="M3.20287 3.59887c-0.765091,0.335437 -0.994606,0.514236 -1.08532,0.594539 -0.139815,0.123709 -0.217142,0.584854 -0.299602,0.976433l1.73103 0 1.73102 0c-0.0824606,-0.391579 -0.159819,-0.85274 -0.299602,-0.976433 -0.0907126,-0.0803031 -0.311835,-0.254516 -1.07695,-0.589941l-0.700575 -0.00459843z"/>
  <path class="fil4" d="M2.91496 3.7293c-0.538012,0.25261 -0.719252,0.394937 -0.797413,0.46411 -0.139815,0.123709 -0.217142,0.584854 -0.299602,0.976433l1.73103 0 1.73102 0c-0.0824606,-0.391579 -0.159819,-0.85274 -0.299602,-0.976433 -0.0755472,-0.0668583 -0.241583,-0.198866 -0.736701,-0.434803 -0.00350787,0.00365354 -0.00711024,0.00724016 -0.0105709,0.0109567 -0.464795,0.502744 -1.12324,0.255634 -1.3014,-0.0170472 -0.00555512,-0.00789764 -0.0111732,-0.0154606 -0.0167638,-0.0232165z"/>
  <path class="fil5" d="M2.02976 4.32832c-0.0880433,0.198346 -0.148413,0.540476 -0.211811,0.841524l0.702697 0c-0.015685,-0.491146 -0.0165827,-0.75237 -0.490886,-0.841524z"/>
  <path class="fil5" d="M5.06818 4.32832c0.0880433,0.198346 0.148413,0.540476 0.211819,0.841524l-0.702728 0c0.0157205,-0.491146 0.0166142,-0.75237 0.490909,-0.841524z"/>
  <path class="fil6" d="M2.91548 3.7293c-0.0353858,0.0165709 -0.0691575,0.0326614 -0.101571,0.048311 0.244728,0.346378 0.994843,0.684831 1.50945,0.0178504 -0.0246457,-0.0120079 -0.0501024,-0.0242756 -0.0765591,-0.0368543 -0.00354331,0.00365354 -0.0071378,0.00724016 -0.0105984,0.0109567 -0.465689,0.502744 -1.12541,0.255634 -1.30394,-0.0170472 -0.00555512,-0.00789764 -0.0111969,-0.0154606 -0.0167874,-0.0232165z"/>
  <path class="fil7" d="M2.58012 5.16985l0.0560315 0c-0.00250394,-0.249024 -0.00250394,-0.4285 -0.00250394,-0.4285 0,0 -0.0247992,0.18652 -0.0535276,0.4285z"/>
  <path class="fil7" d="M4.51781 5.16985l-0.0560276 0c0.0025,-0.249024 0.00252362,-0.4285 0.00252362,-0.4285 0,0 0.0248071,0.18652 0.0535039,0.4285z"/>
  <path class="fil8" d="M4.08199 4.79414c0.0420551,0 0.0761457,0.034374 0.0761457,0.0767835 0,0.0424094 -0.0340906,0.0767835 -0.0761457,0.0767835 -0.0420591,0 -0.0761496,-0.034374 -0.0761496,-0.0767835 0,-0.0424094 0.0340906,-0.0767835 0.0761496,-0.0767835z"/>
  <path class="fil8" d="M3.01596 4.79414c0.0420591,0 0.0761496,0.034374 0.0761496,0.0767835 0,0.0424094 -0.0340906,0.0767835 -0.0761496,0.0767835 -0.0420551,0 -0.0761457,-0.034374 -0.0761457,-0.0767835 0,-0.0424094 0.0340906,-0.0767835 0.0761457,-0.0767835z"/>
  <path class="fil9" d="M2.68281 4.25666l1.73232 0c0.0261772,0 0.0475906,0.0214134 0.0475906,0.0475906l0 0.873815 -1.8275 0 0 -0.873815c0,-0.0261772 0.0214134,-0.0475906 0.0475866,-0.0475906z"/>
  <path class="fil10" d="M2.8377 3.74831c0.0627756,-0.0304016 0.129386,-0.0539961 0.199134,-0.0698307l0 0.758547c0,0.0547638 -0.0447992,0.099563 -0.0995669,0.099563l0 0c-0.0547677,0 -0.0995669,-0.0447992 -0.0995669,-0.099563l0 -0.688717z"/>
  <path class="fil10" d="M4.06111 3.67134c0.068815,0.0126102 0.135528,0.032437 0.199134,0.0586575l0 0.707031c0,0.0547638 -0.0447992,0.099563 -0.0995669,0.099563l0 0c-0.0547677,0 -0.0995669,-0.0447992 -0.0995669,-0.099563l0 -0.765689z"/>
  <path class="fil11" d="M2.93786 4.35502c0.0432008,0 0.0782283,0.0350276 0.0782283,0.0782283 0,0.0431969 -0.0350276,0.0782244 -0.0782283,0.0782244 -0.0432008,0 -0.0782283,-0.0350276 -0.0782283,-0.0782244 0,-0.0432008 0.0350276,-0.0782283 0.0782283,-0.0782283z"/>
  <path class="fil11" d="M4.16067 4.35502c0.0432008,0 0.0782244,0.0350276 0.0782244,0.0782283 0,0.0431969 -0.0350236,0.0782244 -0.0782244,0.0782244 -0.0432008,0 -0.0782283,-0.0350276 -0.0782283,-0.0782244 0,-0.0432008 0.0350276,-0.0782283 0.0782283,-0.0782283z"/>
  <path class="fil12" d="M2.93786 4.39917c0.00671654,0 0.0121614,0.00544488 0.0121614,0.0121614 0,0.0067126 -0.00544488,0.0121614 -0.0121614,0.0121614 -0.00671654,0 -0.0121614,-0.00544882 -0.0121614,-0.0121614 0,-0.00671654 0.00544488,-0.0121614 0.0121614,-0.0121614z"/>
  <path class="fil12" d="M2.93786 4.44302c0.00671654,0 0.0121614,0.00544488 0.0121614,0.0121614 0,0.00671654 -0.00544488,0.0121614 -0.0121614,0.0121614 -0.00671654,0 -0.0121614,-0.00544488 -0.0121614,-0.0121614 0,-0.00671654 0.00544488,-0.0121614 0.0121614,-0.0121614z"/>
  <path class="fil12" d="M4.16067 4.39917c0.00671654,0 0.0121614,0.00544488 0.0121614,0.0121614 0,0.0067126 -0.00544488,0.0121614 -0.0121614,0.0121614 -0.00671654,0 -0.0121614,-0.00544882 -0.0121614,-0.0121614 0,-0.00671654 0.00544488,-0.0121614 0.0121614,-0.0121614z"/>
  <path class="fil12" d="M4.16067 4.44302c0.00671654,0 0.0121614,0.00544488 0.0121614,0.0121614 0,0.00671654 -0.00544488,0.0121614 -0.0121614,0.0121614 -0.00671654,0 -0.0121614,-0.00544488 -0.0121614,-0.0121614 0,-0.00671654 0.00544488,-0.0121614 0.0121614,-0.0121614z"/>
  <path class="fil13" d="M2.732 2.47057c0.0568465,-0.0299094 0.129205,0.0730472 0.161583,0.22998 0.032378,0.156886 0.0125354,0.308303 -0.0443386,0.338213 -0.0568465,0.0298622 -0.129205,-0.0730945 -0.161583,-0.230028 -0.0324055,-0.156886 -0.0125354,-0.308315 0.0443386,-0.338165z"/>
  <path class="fil13" d="M4.3558 2.47057c-0.0568465,-0.0299094 -0.129205,0.0730472 -0.161583,0.22998 -0.032378,0.156886 -0.0125354,0.308303 0.0443386,0.338213 0.0568465,0.0298622 0.129205,-0.0730945 0.161583,-0.230028 0.0324055,-0.156886 0.0125354,-0.308315 -0.0443386,-0.338165z"/>
  <path class="fil14" d="M4.22474 2.53678c-0.238386,0.195543 -0.930461,0.0798937 -1.27897,0.0736024l-0.0662165 -0.0615118 3.93701e-006 0c-0.0568583,-0.299697 -0.166992,0.336697 -0.0217874,0.500976 0.0346024,0.108122 0.0774764,0.229319 0.133004,0.343417 0.0650197,0.133587 0.147787,0.258012 0.255854,0.343319 0.0477047,0.0376654 0.0987913,0.0596614 0.153882,0.072126 0.0519213,0.011752 0.105091,0.014811 0.161559,0.014811 0.0559488,0 0.108406,-0.00272047 0.159043,-0.0138031 0.0547874,-0.0119921 0.105547,-0.0332402 0.152835,-0.0699803 0.108965,-0.0846457 0.192606,-0.209693 0.258402,-0.34439 0.0560118,-0.114665 0.0992008,-0.236697 0.134016,-0.3455 0.034811,-0.32313 0.10028,-0.732425 -0.041626,-0.513067z"/>
  <path class="fil15" d="M3.87586 3.3855c-0.217079,0.0579213 -0.469055,0.0485315 -0.653787,0 0.0602835,0.207067 0.538516,0.212098 0.653787,0z"/>
  <path class="fil16" d="M4.18168 2.81874c-0.0228071,0.0649921 -0.052815,0.234909 -0.0646654,0.298677l0.00147244 -0.000129921c0.000314961,0.00812992 0.00270079,0.0150591 0.0078189,0.0189961 0.0072874,0.00559843 0.0139173,0.0060315 0.0199843,0.00234646 0.00346063,0.0222283 0.00490157,0.0471969 0.00689764,0.0666378 -0.075374,0.10563 -0.137323,0.11574 -0.0780276,0.166752 -0.00970472,0.00966535 -0.0415079,0.0431378 -0.0305354,0.057874 -0.0732165,0.0536969 -0.190815,0.131543 -0.106236,0.145047l-0.00274409 0.00264961c-0.0304921,0.0165591 -0.0920551,0.0179055 -0.127815,0.0424921 -0.0514528,0.0353819 -0.100287,0.0680591 -0.0425551,0.0867795 -0.000244094,0.000165354 -0.000480315,0.000314961 -0.000716535,0.000452756 -0.0329528,-0.0025 -0.0394606,-0.0298976 -0.092315,0.017 -0.0145236,0.0121732 -0.0270866,0.0243504 -0.0322638,0.0411339 -0.0167677,-0.0196142 -0.0121378,-0.0687205 -0.0806772,-0.0766417 -0.00512598,-0.000582677 -0.0106457,-0.000905512 -0.016563,-0.000905512l0 0c-0.0695118,0 -0.0743268,0.036937 -0.081622,0.062252 -0.00633858,-0.00953543 -0.015185,-0.017685 -0.0249094,-0.0258386 -0.0528543,-0.0468976 -0.0593622,-0.0195 -0.092315,-0.017 -0.00023622,-0.000137795 -0.000472441,-0.000287402 -0.000716535,-0.000452756 0.0577323,-0.0187205 0.00889764,-0.0513976 -0.0425551,-0.0867795 -0.0374331,-0.0257362 -0.10315,-0.0260039 -0.13189,-0.0449173 0.0871969,-0.0128898 -0.0312992,-0.0912874 -0.104906,-0.145272 0.0109724,-0.0147362 -0.0208307,-0.0482087 -0.0305354,-0.057874 0.0592953,-0.0510118 -0.00265354,-0.061122 -0.0780276,-0.166752 0.00199606,-0.0194409 0.00343701,-0.0444094 0.00689764,-0.0666378 0.00606693,0.00368504 0.0126969,0.00325197 0.0199843,-0.00234646 0.00511811,-0.00393701 0.00750394,-0.0108661 0.0078189,-0.0189961l0.00147244 0.000129921c-0.0125866,-0.0677323 -0.0456575,-0.255236 -0.0688307,-0.309551 -0.000161417,-0.00038189 -0.000334646,-0.000755906 -0.000515748,-0.00112992 0.0128937,-0.132736 0.0587953,-0.22526 0.16289,-0.218319 0.165697,0.0110433 0.270654,0.0386535 0.463961,0.0386535 0.193319,0 0.298264,-0.0276102 0.463945,-0.0386535 0.0964882,-0.00643307 0.148024,0.094626 0.168795,0.230323zm-1.25178 0.265142l-0.00124803 -0.0114764c-0.000480315,-0.00444488 -0.000948819,-0.00888583 -0.00140157,-0.0133228 0.00164961,0.00688976 0.00334646,0.0135236 0.00510236,0.0198189 -0.000826772,0.00155118 -0.00164567,0.0032126 -0.00245276,0.00498031zm0.652193 0.895965c-0.00646063,0.0123661 -0.0186142,0.0100906 -0.033689,-3.93701e-006 -0.0289016,-0.00336614 -0.052685,-0.0164055 -0.0615,-0.0439882 -0.000850394,-0.00266142 -0.0664882,-0.00680315 -0.0683622,-0.0144646 -0.0192087,-0.00730709 -0.0122047,-0.0124961 -0.0162008,-0.0220472 -0.0143465,-0.00805906 -0.0305315,-0.0198031 -0.0472717,-0.0334764m-0.00682677 -0.00566535c-0.0402402,-0.0337756 -0.082626,-0.0770945 -0.109661,-0.105957 -0.0032874,-0.00234646 -0.00655906,-0.0047126 -0.00983071,-0.00708268 -0.032815,0.0846772 -0.0881614,-0.00894488 -0.113685,-0.0826457 -0.00296457,-0.000165354 -0.00594882,-0.00088189 -0.00879921,-0.00222047l-0.0018622 -0.00158661c-0.00732283,0.0526063 -0.0512559,-0.00499606 -0.0825669,-0.0515709 -0.000515748,0.00126772 -0.00109449,0.00235039 -0.00174803,0.0032126 -0.027374,0.0361811 -0.0552362,-0.0246811 -0.0737638,-0.0805039l-0.000622047 -7.87402e-006c-0.014752,0.041937 -0.0343976,0.0389646 -0.0454449,-0.000755906l-0.00065748 -1.1811e-005 0.000267717 -0.00144094c-0.00274409,-0.0102795 -0.00493307,-0.0228976 -0.00633465,-0.037748 -0.00940551,-0.0995512 -0.0408346,-0.185264 -0.0316339,-0.273311 0.00958661,-0.091752 -0.00783071,-0.0358031 -0.029315,-0.0687638 -0.00942913,-0.00956693 -0.010748,-0.0219803 -0.00954331,-0.0343583 -0.0446142,0.0164173 -0.0216575,-0.0549646 -0.00491732,-0.0972756 -0.00136614,-0.00885039 0.00229528,-0.0208071 0.00843701,-0.0316693 -0.00842126,-0.0282126 0.00802362,-0.169701 0.00947244,-0.199047 0,-0.0117717 0.00854331,-0.0215433 0.0197677,-0.0234567 0.0105079,-0.298154 0.046811,-0.571547 0.693138,-0.571547 0.599933,0 0.684488,0.273346 0.695965,0.5715 0.0012126,-0.000188976 0.00245276,-0.000291339 0.00371654,-0.000291339 0.0131417,0 0.0237953,0.0106535 0.0237953,0.0237953 0.00144882,0.0293465 0.0178937,0.170835 0.00947244,0.199047 0.00614173,0.0108622 0.00980315,0.0228189 0.00843701,0.0316693 0.0167402,0.042311 0.0396969,0.113693 -0.00491732,0.0972756 0.00120472,0.012378 -0.000114173,0.0247913 -0.00954331,0.0343583 -0.0214843,0.0329606 -0.0389016,-0.0229882 -0.029315,0.0687638 0.00920472,0.0880472 -0.0222283,0.17376 -0.0316339,0.273311 -0.00140157,0.0148504 -0.00359055,0.0274685 -0.00633465,0.037748l0.000267717 0.00144094 -0.00065748 1.1811e-005c-0.0110472,0.0397205 -0.0306929,0.0426929 -0.0454449,0.000755906l-0.00061811 7.87402e-006c-0.0185315,0.0558228 -0.0463937,0.116685 -0.0737677,0.0805039 -0.000653543,-0.000862205 -0.00123228,-0.00194488 -0.00174803,-0.0032126 -0.031311,0.0465748 -0.0752441,0.104177 -0.0825669,0.0515709l-0.0018622 0.00158661c-0.00285039,0.00133858 -0.00583465,0.00205906 -0.00879921,0.00222047 -0.0257717,0.0744134 -0.0819488,0.169165 -0.11463,0.0801693 -0.056189,0.0608976 -0.196091,0.284772 -0.207559,0.20674 -0.0245236,0.0141496 -0.057563,0.0252717 -0.0891024,0.0284213m-0.725165 -0.933224c-0.00114567,0.00283465 -0.00226378,0.00575197 -0.00333465,0.00876772l0.00407874 -0.000570866c-0.000248031,-0.00273228 -0.000507874,-0.00545669 -0.000744094,-0.00819685zm-0.0248465 0.102382c-0.000893701,-0.00143307 -0.00179921,-0.003 -0.0027126,-0.00476378 0.00114173,0.00239764 0.00183858,0.00366535 0.0027126,0.00476378zm1.0856 0.561689l-0.00164961 0.00236614 -0.000299213 -0.000854331 0.00194882 -0.00151181zm0.324705 -0.594626c0.000354331,-0.000330709 0.00073622,-0.00065748 0.00114567,-0.001l-0.0010315 0.000948819 -0.000114173 5.11811e-005zm0.0339843 0.032937c0.000893701,-0.00143307 0.00179921,-0.003 0.0027126,-0.00476378 -0.00114173,0.00239764 -0.00183858,0.00366535 -0.0027126,0.00476378z"/>
  <path class="fil17" d="M4.05191 2.11685c0.200996,0.0195591 0.393575,-0.0384173 0.513461,-0.000106299 0.144835,0.0462835 0.228563,0.112335 0.228563,0.194724 0,0.105433 -0.152776,0.188705 -0.399772,0.238102 -0.21374,0.0427441 -0.530217,0.158087 -0.854303,0.158087 -0.324091,0 -0.596122,-0.115343 -0.809858,-0.158087 -0.247,-0.0493976 -0.399776,-0.132669 -0.399776,-0.238102 0,-0.0820276 0.0826654,-0.147776 0.225823,-0.193933 0.118264,-0.0381299 0.264307,0.0198819 0.463157,0.000137795l0.0585118 -0.00580709 0.020315 0.055185c0.0141535,0.0384606 0.0632559,0.0752126 0.13478,0.104323 0.0810512,0.0329921 0.186551,0.0528465 0.302752,0.0528465 0.116969,0 0.222689,-0.0198504 0.303406,-0.0528189 0.0715039,-0.0292008 0.120508,-0.0660512 0.134413,-0.104579l0.0200945 -0.0556575 0.0584331 0.00568504z"/>
  <path class="fil18" d="M3.56208 1.69673c0.0743228,0 0.136661,-0.0124528 0.188642,-0.0228346 0.11187,-0.0223465 0.188728,-0.0376969 0.26713,0.0475276 0.0209016,0.0227205 0.0510118,0.0998858 0.077189,0.181295 0.0311575,0.0968937 0.060248,0.207992 0.060248,0.234642 0,0.101256 -0.0742441,0.188055 -0.19428,0.246531 -0.103374,0.0503583 -0.244524,0.0815118 -0.398929,0.0815118 -0.154406,0 -0.295551,-0.0311535 -0.398925,-0.0815118 -0.120035,-0.0584764 -0.19428,-0.145276 -0.19428,-0.246531 0,-0.0232795 0.0264921,-0.138039 0.0540354,-0.237654 0.0226693,-0.0820039 0.0483622,-0.159331 0.0655197,-0.180768 0.0747638,-0.0933937 0.154728,-0.0755118 0.271173,-0.0494685 0.0551811,0.0123425 0.121878,0.0272598 0.202476,0.0272598z"/>
  <path class="fil16" d="M3.53963 3.3458c0.00265748,0.0354724 -0.0653898,0.0952323 -0.265657,0.0344213 -0.0102598,-0.00311417 -0.0438898,-0.013437 -0.0585315,-0.00970866 -0.00307087,0.0059685 -0.00509843,0.00769685 -0.0118898,0.0110157 -0.0321575,0.0442598 0.0681535,0.253992 0.0840394,0.293831 0.00430315,0.0124173 -0.00227953,0.0259724 -0.0146929,0.0302717 -0.0124173,0.00429921 -0.0259724,-0.00227953 -0.0302717,-0.0146969 -0.0103346,-0.0258701 -0.039563,-0.0855118 -0.0623189,-0.148988 0.00168504,0.0125354 0.00405512,0.024252 0.00755512,0.0345039 0.00712205,0.0100472 0.00540945,0.0240472 -0.00422047,0.0320472 -0.0101063,0.00839764 -0.0251063,0.00700787 -0.0335039,-0.00309843 -0.0278504,-0.0439528 -0.0192913,-0.155429 -0.0297835,-0.198421 -0.00886614,-0.00734646 -0.00856299,-0.0146024 -0.00384646,-0.0256496 -0.0139764,-0.00704331 -0.0210394,-0.0108504 -0.0291457,-0.0238937 -0.000649606,-0.000807087 -0.00129921,-0.00161811 -0.0019252,-0.0024685 -0.00118504,-0.0016063 -0.00223228,-0.00384646 -0.00307087,-0.00644882l-0.000917323 -0.00179921 0.000366142 -9.44882e-005c-0.00492913,-0.0186339 0.000980315,-0.0510197 0.0445551,-0.0149331 -0.000814961,-0.00266142 -0.0020748,-0.00471654 -0.00466535,-0.00688976 0.0152126,0.0052874 0.0478898,0.00595276 0.0641378,0.00166929 0.131197,-0.113972 0.242224,0.0762323 0.320598,-0.0146732 0.00796457,-0.0104567 0.0228937,-0.0124724 0.0333465,-0.00451181 0.0104567,0.00796457 0.0124764,0.0228937 0.00451181,0.0333465 -0.00155512,0.00179921 -0.00311024,0.00350787 -0.00466929,0.00516929zm-0.418244 0.062c0.00254724,0.0033622 0.00623622,0.00493701 0.0103465,0.00632677 -0.00425591,-0.00218504 -0.00766142,-0.00426378 -0.0103465,-0.00632677zm0.0949921 -0.0391654l0.000212598 -0.000405512 -1.5748e-005 0 -0.00019685 0.000405512zm-0.0131181 0.0130354l-0.00101181 0.000488189c0.000476378,-0.000216535 0.000720472,-0.000295276 0.00101181,-0.000488189z"/>
  <path class="fil16" d="M3.5587 3.3458c-0.00265748,0.0354724 0.0653898,0.0952323 0.265657,0.0344213 0.0102598,-0.00311417 0.0438898,-0.013437 0.0585315,-0.00970866 0.00307087,0.0059685 0.00509843,0.00769685 0.0118898,0.0110157 0.0321614,0.0442598 -0.0681535,0.253992 -0.0840394,0.293831 -0.00429921,0.0124173 0.00227953,0.0259724 0.0146969,0.0302717 0.0124134,0.00429921 0.0259685,-0.00227953 0.0302717,-0.0146969 0.0103307,-0.0258701 0.0395591,-0.0855118 0.062315,-0.148988 -0.00168504,0.0125354 -0.00405512,0.024252 -0.00755512,0.0345039 -0.00712205,0.0100472 -0.00540945,0.0240472 0.00422047,0.0320472 0.0101063,0.00839764 0.0251063,0.00700787 0.0335039,-0.00309843 0.0278504,-0.0439528 0.0192913,-0.155429 0.0297835,-0.198421 0.00887008,-0.00734646 0.00856299,-0.0146024 0.00385039,-0.0256496 0.0139724,-0.00704331 0.0210354,-0.0108504 0.0291417,-0.0238937 0.000649606,-0.000807087 0.00129921,-0.00161811 0.0019252,-0.0024685 0.00118504,-0.0016063 0.00223228,-0.00384646 0.00307087,-0.00644882l0.000917323 -0.00179921 -0.000362205 -9.44882e-005c0.0049252,-0.0186339 -0.000984252,-0.0510197 -0.0445591,-0.0149331 0.000814961,-0.00266142 0.0020748,-0.00471654 0.00466535,-0.00688976 -0.0152126,0.0052874 -0.0478898,0.00595276 -0.0641339,0.00166929 -0.131197,-0.113972 -0.242228,0.0762323 -0.320602,-0.0146732 -0.00796457,-0.0104567 -0.0228937,-0.0124724 -0.0333465,-0.00451181 -0.0104567,0.00796457 -0.0124724,0.0228937 -0.00451181,0.0333465 0.00155512,0.00179921 0.00311024,0.00350787 0.00466929,0.00516929zm0.418244 0.062c-0.00254724,0.0033622 -0.00623622,0.00493701 -0.0103425,0.00632677 0.00425197,-0.00218504 0.00766142,-0.00426378 0.0103425,-0.00632677zm-0.0949921 -0.0391654l-0.000212598 -0.000405512 1.5748e-005 0 0.00019685 0.000405512zm0.0131181 0.0130354l0.00101181 0.000488189c-0.000476378,-0.000216535 -0.000720472,-0.000295276 -0.00101181,-0.000488189z"/>
  <path class="fil19" d="M2.08278 3.54931l-0.0915394 0.00748819 0.132008 1.61305c0.00992126,-0.00116929 0.0652913,-0.00767323 0.0913189,-0.0101181l-0.131787 -1.61042z"/>
  <path class="fil20" d="M2.32681 2.40602c-0.034626,-0.0569961 -0.0290315,0.0109173 -0.0290315,0.0109173 0,0 0.0138819,0.169823 0.0211772,0.258976 0.00732677,0.0891535 0.0575,0.597909 0.0259685,0.630413 -0.00497638,0.00514961 -0.0621024,0.0131693 -0.141059,0.0216102 -0.00946063,-0.00569685 -0.0194134,-0.0142008 -0.0217638,-0.0254724 -0.00475591,-0.0226575 -0.0797874,-0.86911 -0.0797874,-0.86911 0,0 -0.0120866,-0.0422165 -0.0252244,-0.0267323 -0.0131417,0.0154685 -0.006,0.0321654 -0.006,0.0321654 0,0 0.0616417,0.859079 0.0570984,0.873839 -0.00194882,0.0063622 -0.0100787,0.0158701 -0.0186417,0.0246654 -0.054626,0.00503543 -0.113087,0.00992126 -0.168953,0.0140787 -0.0101496,-0.00566142 -0.0220039,-0.0147126 -0.0245906,-0.0271378 -0.00475591,-0.0226457 -0.0797559,-0.869106 -0.0797559,-0.869106 0,0 -0.0121181,-0.0422126 -0.025252,-0.0267323 -0.0131417,0.0154724 -0.0060315,0.0321732 -0.0060315,0.0321732 0,0 0.0616732,0.859063 0.0571457,0.873835 -0.00190157,0.0061063 -0.00939764,0.0150748 -0.0175787,0.0235433 -0.0927402,0.00572835 -0.163008,0.00793307 -0.169374,0.00319685 -0.0364016,-0.026937 -0.0319213,-0.225807 -0.0493228,-0.485543 -0.00601575,-0.089248 -0.0487835,-0.399673 -0.0487835,-0.399673 0,0 -0.00556299,-0.0679331 -0.0303898,-0.00606299 0,0 0.0211024,0.186177 0.0310197,0.38087 0.0123228,0.241346 0.0159055,0.505406 0.0415039,0.55772 0.0462047,0.0945197 0.149114,0.0989252 0.25526,0.0902244l0.0626929 -0.00512598c0,0 0.00494488,-0.000401575 0.0136496,-0.00111417l0.0175394 0.214366c0,0 0.0383504,0.0149173 0.0763543,0.011815 0.0380039,-0.00311811 0.073122,-0.0240394 0.073122,-0.0240394l-0.0175315 -0.214366 0.0703622 -0.00575591c0.106157,-0.00869685 0.206969,-0.0297756 0.237205,-0.130555 0.0302323,-0.10076 -0.0810276,-0.937882 -0.0810276,-0.937882z"/>
  <path class="fil18" d="M2.12055 3.32602c6.29921e-005,-0.000330709 0.000153543,-0.00123228 0.000188976,-0.00240157 -0.0023189,0.00264173 -0.00479134,0.00530709 -0.00732677,0.00792913 -0.0546575,0.00504724 -0.113134,0.00991339 -0.168949,0.0140748 -0.010189,-0.00565748 -0.0220276,-0.0147087 -0.0246417,-0.027126 -0.00474409,-0.0226535 -0.0797717,-0.86911 -0.0797717,-0.86911 0,0 -0.0121024,-0.0422244 -0.0252126,-0.0267441 -0.00466535,0.00550394 -0.00674016,0.0111299 -0.00752756,0.0161378 0.0114843,-0.00430315 0.0212874,0.0297441 0.0212874,0.0297441 0,0 0.0750276,0.846453 0.0797244,0.869106 0.00262992,0.0124213 0.0144567,0.0214803 0.0246417,0.027126 0.0558307,-0.00415748 0.114283,-0.00902756 0.168945,-0.014063 0.00856693,-0.00881496 0.0166969,-0.018311 0.0186417,-0.0246732zm-0.441579 0.029378l0 0c-0.0363976,-0.0269331 -0.0319331,-0.225815 -0.0493268,-0.485539 -0.00598031,-0.089252 -0.0487756,-0.399685 -0.0487756,-0.399685 0,0 -0.00527165,-0.0642835 -0.0284409,-0.0107047 0.0135512,-0.0120866 0.0169528,0.0298583 0.0169528,0.0298583 0,0 0.0427874,0.310413 0.0487835,0.399669 0.0173898,0.259732 0.0129213,0.45861 0.049311,0.485528 0.00641339,0.00472835 0.0766496,0.00255118 0.169406,-0.00318504 0.00819291,-0.00847638 0.0157047,-0.0174488 0.0175866,-0.0235394 6.29921e-005,-0.000322835 0.000141732,-0.00124409 0.000177165,-0.00238976 -0.00199606,0.00224803 -0.00409843,0.00454331 -0.00626378,0.00679528 -0.0927717,0.00572047 -0.163012,0.00793307 -0.169409,0.00319291zm0.506933 -0.0586811l0 0c-0.00472835,-0.0226614 -0.0797598,-0.869102 -0.0797598,-0.869102 0,0 -0.0121181,-0.0422205 -0.0251929,-0.026748 -0.00470079,0.00549213 -0.00677165,0.0111299 -0.00754331,0.0161339 0.0114685,-0.00431102 0.0212677,0.0297402 0.0212677,0.0297402 0,0 0.075,0.846461 0.0797598,0.869114 0.00234646,0.0112638 0.0123346,0.0197795 0.0217638,0.0254843 0.0789213,-0.00844094 0.136083,-0.0164764 0.141091,-0.0216142 0.00253543,-0.00262205 0.00454331,-0.0083937 0.00605906,-0.0167677 -0.0165118,0.00509055 -0.0680433,0.0120118 -0.135654,0.0192402 -0.0094252,-0.00569685 -0.0194094,-0.0142126 -0.0217913,-0.0254803zm0.144709 -0.896441l0 0c-0.0240551,-0.0396299 -0.0286575,-0.0188819 -0.0292126,-0.00253937 0.00420472,0.00234646 0.00995669,0.00880709 0.0177441,0.0216693 0,0 0.111256,0.837138 0.0810236,0.937917 -0.00284252,0.00958661 -0.00639764,0.0184724 -0.0105118,0.0266929 0.00924409,-0.0130984 0.0167598,-0.0282402 0.0220118,-0.0458543 0.0301732,-0.100772 -0.0810551,-0.937886 -0.0810551,-0.937886zm-0.238035 1.07985l0 0 0.0165669 0.215197c0.00775984,-0.00369685 0.0124882,-0.00649213 0.0124882,-0.00649213l-0.0160748 -0.209772 -0.0129803 0.00106693z"/>
 </g>
</svg>
