<svg xmlns="http://www.w3.org/2000/svg" width="38.064" height="48" viewBox="0 0 38.064 48">
  <g>
    <path d="M13.464.055a1.539,1.539,0,0,0-1.1,1.5V11.4a1.592,1.592,0,0,1-2.02,1.526,1.623,1.623,0,0,1-1.156-1.585V1.557A1.539,1.539,0,0,0,8.1.055,1.509,1.509,0,0,0,6.184,1.5v9.832a1.623,1.623,0,0,1-1.156,1.585A1.592,1.592,0,0,1,3.008,11.4V1.557a1.539,1.539,0,0,0-1.1-1.5A1.509,1.509,0,0,0,0,1.5V12.576A6.465,6.465,0,0,0,3.273,18.2,3.427,3.427,0,0,1,5.061,21.16v.012c0,2.653,5.252,2.653,5.252,0v-.013A3.427,3.427,0,0,1,12.1,18.2a6.465,6.465,0,0,0,3.274-5.625V1.5A1.508,1.508,0,0,0,13.464.055Z" fill="#e2e2e2"/>
    <path d="M35.159,6.387,29.439,0l-5.72,6.387a11.383,11.383,0,0,0-2.905,7.6V24l8.625-2.22L38.064,24V13.984A11.388,11.388,0,0,0,35.159,6.387Z" fill="#e2e2e2"/>
    <path d="M32.651,32.677q-.266-4.458-.266-8.923v-.015c0-.4-5.893-.4-5.893,0v.015q0,4.464-.266,8.923l-.727,12.2A2.947,2.947,0,0,0,28.44,48h2a2.947,2.947,0,0,0,2.941-3.122Z" fill="#e49a61"/>
    <path d="M10.9,32.677q-.265-4.458-.266-8.923v-.015c0-.4-5.892-.4-5.892,0v.015q0,4.464-.266,8.923l-.727,12.2A2.947,2.947,0,0,0,6.692,48h2a2.947,2.947,0,0,0,2.941-3.122Z" fill="#e49a61"/>
    <path d="M33.386,26.253h-7.9a.457.457,0,0,1-.449-.543l1.538-8.086a.457.457,0,0,1,.449-.371h4.82a.457.457,0,0,1,.449.371l1.537,8.086A.456.456,0,0,1,33.386,26.253Z" fill="#c6c6c6"/>
    <path d="M11.422,26.211a.525.525,0,0,1-.524.542H4.481a.523.523,0,0,1-.523-.542l.177-5.451a.524.524,0,0,1,.524-.507h6.063a.524.524,0,0,1,.524.507Z" fill="#c6c6c6"/>
  </g>
</svg>
