<?xml version="1.0" encoding="utf-8"?>
<!-- Generator: Adobe Illustrator 21.1.0, SVG Export Plug-In . SVG Version: 6.00 Build 0)  -->
<svg version="1.1" id="Icon_Set" xmlns="http://www.w3.org/2000/svg" xmlns:xlink="http://www.w3.org/1999/xlink" x="0px" y="0px"
	 viewBox="0 0 512 512" style="enable-background:new 0 0 512 512;" xml:space="preserve">
<style type="text/css">
	.st0{fill:#FFFFFF;}
	.st1{fill:#7DAC51;}
	.st2{fill:#5B7C31;}
	.st3{fill:#463218;}
	.st4{fill:#FEFE71;}
	.st5{fill:#D6CD1E;}
	.st6{fill:#E56823;}
	.st7{fill:#FE8E46;}
	.st8{fill:none;stroke:#FFFFFF;stroke-width:10;stroke-miterlimit:10;}
	.st9{fill:none;stroke:#463218;stroke-width:14;stroke-linecap:round;stroke-linejoin:round;stroke-miterlimit:10;}
	.st10{fill:#FE8D47;}
	.st11{fill:#E56724;}
</style>
<g id="GARDEN_SHED">
	<g>
		<g>
			<rect x="210" y="212.5" class="st1" width="89.2" height="166.5"/>
		</g>
	</g>
	<g>
		<g>
			<rect x="210" y="212.5" class="st2" width="30.8" height="166.5"/>
		</g>
	</g>
	<g>
		<g>
			<rect x="299.2" y="212.5" class="st4" width="59.2" height="165.6"/>
		</g>
	</g>
	<g>
		<g>
			<rect x="156.9" y="212.5" class="st4" width="59.2" height="165.6"/>
		</g>
	</g>
	<g>
		<g>
			<polygon class="st7" points="256,134 122.4,212.5 256,212.5 389.6,212.5 			"/>
		</g>
	</g>
	<g>
		<g>
			<polygon class="st6" points="256,134 122.4,212.5 216,212.5 			"/>
		</g>
	</g>
	<g>
		<g>
			<path class="st3" d="M358.4,385H153.6c-3.9,0-7-3.1-7-7V212.5c0-3.9,3.1-7,7-7h204.8c3.9,0,7,3.1,7,7V378
				C365.4,381.9,362.3,385,358.4,385z M160.6,371h190.8V219.5H160.6V371z"/>
		</g>
	</g>
	<g>
		<g>
			<path class="st3" d="M212.8,385h-59.2c-3.9,0-7-3.1-7-7V212.5c0-3.9,3.1-7,7-7h59.2c3.9,0,7,3.1,7,7V378
				C219.8,381.9,216.7,385,212.8,385z M160.6,371h45.2V219.5h-45.2V371z"/>
		</g>
	</g>
	<g>
		<g>
			<path class="st3" d="M358.4,385h-59.2c-3.9,0-7-3.1-7-7V212.5c0-3.9,3.1-7,7-7h59.2c3.9,0,7,3.1,7,7V378
				C365.4,381.9,362.3,385,358.4,385z M306.2,371h45.2V219.5h-45.2V371z"/>
		</g>
	</g>
	<g>
		<g>
			<path class="st3" d="M386.4,385H125.6c-3.9,0-7-3.1-7-7s3.1-7,7-7h260.8c3.9,0,7,3.1,7,7S390.3,385,386.4,385z"/>
		</g>
	</g>
	<g>
		<g>
			<path class="st3" d="M389.6,219.5H122.4c-3.2,0-5.9-2.1-6.8-5.2c-0.8-3,0.5-6.3,3.2-7.9l133.6-78.5c2.2-1.3,4.9-1.3,7.1,0
				l133.6,78.5c2.7,1.6,4,4.8,3.2,7.9C395.5,217.4,392.7,219.5,389.6,219.5z M148.2,205.5h215.7L256,142.1L148.2,205.5z"/>
		</g>
	</g>
	<g>
		<g>
			<g>
				<path class="st3" d="M210,248.9h-54.2c-3.9,0-7-3.1-7-7s3.1-7,7-7H210c3.9,0,7,3.1,7,7S213.8,248.9,210,248.9z"/>
			</g>
		</g>
		<g>
			<g>
				<path class="st3" d="M210,285h-54.2c-3.9,0-7-3.1-7-7s3.1-7,7-7H210c3.9,0,7,3.1,7,7S213.8,285,210,285z"/>
			</g>
		</g>
		<g>
			<g>
				<path class="st3" d="M210,321.2h-54.2c-3.9,0-7-3.1-7-7s3.1-7,7-7H210c3.9,0,7,3.1,7,7S213.8,321.2,210,321.2z"/>
			</g>
		</g>
		<g>
			<g>
				<path class="st3" d="M210,357.3h-54.2c-3.9,0-7-3.1-7-7s3.1-7,7-7H210c3.9,0,7,3.1,7,7S213.8,357.3,210,357.3z"/>
			</g>
		</g>
	</g>
	<g>
		<g>
			<g>
				<path class="st3" d="M353.4,248.9h-54.2c-3.9,0-7-3.1-7-7s3.1-7,7-7h54.2c3.9,0,7,3.1,7,7S357.3,248.9,353.4,248.9z"/>
			</g>
		</g>
		<g>
			<g>
				<path class="st3" d="M353.4,285h-54.2c-3.9,0-7-3.1-7-7s3.1-7,7-7h54.2c3.9,0,7,3.1,7,7S357.3,285,353.4,285z"/>
			</g>
		</g>
		<g>
			<g>
				<path class="st3" d="M353.4,321.2h-54.2c-3.9,0-7-3.1-7-7s3.1-7,7-7h54.2c3.9,0,7,3.1,7,7S357.3,321.2,353.4,321.2z"/>
			</g>
		</g>
		<g>
			<g>
				<path class="st3" d="M353.4,357.3h-54.2c-3.9,0-7-3.1-7-7s3.1-7,7-7h54.2c3.9,0,7,3.1,7,7S357.3,357.3,353.4,357.3z"/>
			</g>
		</g>
	</g>
	<g>
		<g>
			<circle class="st3" cx="275.2" cy="297.5" r="7.8"/>
		</g>
	</g>
	<g>
		<g>
			<g>
				<g>
					<rect x="269.8" y="249.2" class="st0" width="10.8" height="30.8"/>
				</g>
			</g>
		</g>
		<g>
			<g>
				<g>
					<rect x="269.8" y="228.3" class="st0" width="10.8" height="11.7"/>
				</g>
			</g>
		</g>
	</g>
</g>
</svg>
