<?xml version="1.0" encoding="utf-8"?>
<!-- Generator: Adobe Illustrator 21.0.0, SVG Export Plug-In . SVG Version: 6.00 Build 0)  -->
<svg version="1.1" id="Layer_1" xmlns="http://www.w3.org/2000/svg" xmlns:xlink="http://www.w3.org/1999/xlink" x="0px" y="0px"
	 viewBox="0 0 799 400" style="enable-background:new 0 0 799 400;" xml:space="preserve">
<style type="text/css">
	.st0{fill:#F2EDE5;}
</style>
<g id="New">
	<g id="Home---new" transform="translate(-167.000000, -4555.000000)">
		<g id="Price-table" transform="translate(89.000000, 4333.000000)">
			<g id="Group-29" transform="translate(0.000000, 122.000000)">
				<path id="bg-leaves" class="st0" d="M351.9,460c2.5-5.9,6.1-11.4,9.4-17c4-6.8,8.2-13.4,12.3-20.2c0.5-0.8,0.6-2.1,0.3-2.9
					c-1.4-4.4-3.5-8.7-4.4-13.2c-2.4-12.7-4-25.6-3.5-38.6c0.6-14.7,2.1-29.2,6.4-43.3c5.9-19.5,15.7-36.8,30-51.6
					c10.9-11.3,21-23.2,31-35.3c12.3-14.8,25.1-29,42.6-38.1c9.1-4.8,18.2-9.6,28.3-12.2c6.4-1.6,12.8-3.3,19-5.5
					c13.3-4.9,26.4-10.3,39.7-15.2c13.1-4.9,26.3-9.8,40.5-10.9c4.8-0.4,9.7-1.7,14.3-3.3c6.3-2.2,12.2-5.6,18.6-7.4
					c6.9-1.9,12.4-5.6,17.2-10.6c0.9-0.9,1.6-1.5,2.7-0.2c0.3,0.4,1.2,0.4,1.8,0.6c-1.6,5.1-3,10-4.6,15c-2.1,6.6-3.9,13.4-6.8,19.7
					c-3.7,8.3-8,16.2-9.9,25.2c-1.7,7.6-4,15-5.4,22.7c-2.7,14.1-5.9,28.2-13.2,40.8c-7.4,12.8-13.8,26.1-19.4,39.6
					c-3.8,9.3-8.5,18.1-14.9,25.6c-14.1,16.5-28.8,32.4-43.2,48.6c-11.3,12.6-25.2,21.8-40.1,29.6c-12.2,6.4-24.6,12.2-37.2,17.8
					c-7.7,3.4-15.6,6.4-24.3,6.9c-9.4,0.5-18.7,1.6-28,2.3c-6.2,0.4-12.4,1.1-18.4-1.6c-2.6-1.2-5.7-1.7-8.6-2.3
					c-4.3-0.8-6.3,0.2-8.5,3.9c-4.6,7.6-9.2,15.2-13.7,22.9c-4.5,7.7-8.5,15.6-8.6,24.9c-0.1,5.5,0.8,10.6,3.8,15.4
					c0.5,0.7,0.7,2.2,0.3,2.6c-0.6,0.7-2,1.2-2.8,1c-1.1-0.4-2.2-1.4-2.7-2.4C346.2,482,347.3,470.9,351.9,460L351.9,460z
					 M539.5,179.7c-12.7,5.7-26.3,8.6-39.4,13c-4.8,1.6-9.5,4.4-13.4,7.6c-7.6,6.2-15,12.7-21.8,19.8
					c-10.1,10.6-18.2,22.7-25.3,35.4c-2.4,4.4-5.2,8.5-7.6,12.9c-6.2,11.3-10.5,23.4-14.5,35.7c-2.2,6.9-4.5,13.7-6.2,20.7
					c-3.2,13.2-6.1,26.5-6.6,40.1c-0.2,5.6,0.4,11.2,0.6,16.8c0.3,0,0.7,0.1,1,0.1c5.8-6.1,11.5-12.3,17.3-18.4
					c3.4-3.5,7-6.9,10.3-10.5c3.1-3.3,5.9-6.9,8.7-10.4c0.4-0.5,0.5-1.3,0.5-1.9c-0.2-3.1-0.8-6.2-0.6-9.3
					c0.7-13.7,3.5-26.9,8.9-39.6c2.8-6.5,5.1-13.1,8.2-19.5c5.2-10.9,12.4-20.6,19.7-30.1c6.4-8.3,12.4-17,19.6-24.5
					c9.8-10.1,20.5-19.2,30.9-28.7c3.3-3,6.8-6,10.4-9.1C539.9,179.8,539.7,179.7,539.5,179.7L539.5,179.7z M599.3,160
					c-4,0.7-8.1,1-11.9,2.2c-12.1,3.9-24.3,7.9-36.1,12.5c-4.2,1.7-7.9,5.1-11.4,8.2c-14.1,12.2-28.9,23.8-41.2,38.1
					c-10.3,12.1-19.2,25.2-28,38.3c-9.3,14-14.8,29.6-20.1,45.2c-3.3,9.7-4.3,19.8-4.7,30c0,0.6,0,1.3,0.1,1.9
					c0,0.3,0.2,0.5,0.5,1.1c1.3-1.3,2.6-2.4,3.8-3.6c16.1-16.4,32.1-32.9,48.3-49.2c4.7-4.8,7.6-10.5,10.2-16.6
					c3.4-7.8,6.9-15.5,10.5-23.3c4.5-9.7,10.8-18.3,17.2-26.8c9.7-12.8,20.6-24.5,33-34.8c7.2-5.9,14.4-12,21.7-17.8
					c2.5-2,5.5-3.4,8.2-5C599.5,160.4,599.4,160.2,599.3,160L599.3,160z M625.4,154c-5.8,1.9-11.6,3.8-17.4,5.6
					c-1.2,0.4-2.5,0.7-3.6,1.4c-13.4,8.5-25.3,18.9-37.2,29.5c-12.5,11.2-23.3,23.9-32.8,37.6c-6,8.6-10.5,18.1-14.2,28
					c-1.7,4.7-4.2,9-6.4,13.5c0.2,0.1,0.3,0.2,0.5,0.3c4.4-4.6,8.8-9.2,13.1-13.9c9.5-10.3,19-20.6,28.3-31
					c7.5-8.4,16.4-15.3,25-22.5c14.8-12.4,29.1-25.3,43.6-38c5.5-4.8,11-9.6,16.4-14.5c0.6-0.5,1.1-1.2,2.1-2.3
					C636.6,150,631,152.1,625.4,154L625.4,154z M634.5,189.3c0.3-6.6,4.4-11.7,6.6-17.6c2.9-7.6,5.7-15.3,8.5-22.9
					c0.9-2.4,1.8-4.8,2.8-7.6c-3.2,3.6-6,7-9.1,10.1c-6.1,5.9-12.5,11.6-18.8,17.3c-14,12.7-27.6,25.8-42.1,37.9
					c-12.9,10.7-24.5,22.5-35.4,35.2c-7.7,8.9-16.2,17.1-24.3,25.6c-2.5,2.6-4.9,5.2-7.8,8.3c2.7-0.4,4.8-0.7,6.9-1.2
					c14.2-2.9,27.1-9.1,39.7-16.2c15.1-8.5,28.2-19.6,40.7-31.5c5.8-5.5,11.6-10.9,16.9-16.8c5.2-5.9,9.8-12.3,14.6-18.5
					C634,190.8,634.4,190,634.5,189.3L634.5,189.3z M632.6,196.6c-1.9,2.4-3.5,4.2-4.9,6.2c-5.8,8.8-13.7,15.8-21.2,23
					c-6.9,6.6-14,12.9-21.2,19.2c-8.7,7.6-18.3,13.7-28.4,19.3c-8,4.4-15.9,9.2-25,11.2c-7.3,1.7-14.6,3.1-21.9,4.7
					c-0.8,0.2-1.6,0.8-2.2,1.4c-6,6.3-12,12.7-18,18.9c-8.9,9.2-18,18.4-27,27.6c-3.7,3.8-7.4,7.8-11.1,11.7
					c-0.3,0.3-0.5,0.7-0.9,1.4c2.9-0.8,5.4-1.6,7.8-2.1c7-1.6,13.9-3,20.9-4.6c1.7-0.4,3.4-0.9,5-1.6c5.6-2.4,11.2-4.9,16.8-7.4
					c18.7-8.3,35.8-19.3,52.9-30.5c15.7-10.3,30.3-21.9,44.1-34.5c7.5-6.9,14.6-14.1,21.8-21.3c3.9-3.9,6.3-8.4,7.1-14.1
					C628.6,215.9,630.6,206.7,632.6,196.6L632.6,196.6z M593.4,300c5.7-13.3,12.4-26.1,20-38.5c4-6.6,7.8-13.3,9.8-21.6
					c-3.1,3.1-5.6,5.8-8.3,8.3c-10.2,9.5-20.4,18.9-30.6,28.3c-14.3,13.1-30.3,23.8-46.4,34.5c-12.8,8.5-26.4,16-40.8,21.6
					c-1.5,0.6-2.9,1.3-4.3,2c-7.5,4.2-15.6,6.4-24,7.6c-3.4,0.5-6.8,1.2-10.1,2.2c-3.9,1.1-7.7,2.5-12,2.2c-1.2-0.1-2.7,1.1-3.6,2.1
					c-8,8.5-15.9,17.1-23.8,25.7c-3.1,3.3-6,6.7-9,10.1c0.1,0.3,0.1,0.6,0.2,0.8c4.5,0.1,9,0.2,13.5,0.2c1.1,0,2.2-0.4,3.3-0.4
					c8.4,0.5,16.5-1.8,24.3-4.2c13.3-4.1,26.6-8.5,39.4-14c15.6-6.6,31-13.8,45.4-23.1c10.4-6.7,20.6-13.5,30.8-20.4
					c6.4-4.3,12.6-8.8,18.8-13.4C589.3,307.5,591.6,304,593.4,300L593.4,300z M382.9,419.6c5.6,1.7,11.1,3.6,16.7,5.1
					c2,0.5,4.2,0.3,6.4,0.2c12.3-0.9,24.6-1.4,36.8-3.1c6.9-1,13.6-3.6,20.1-6.4c10.2-4.4,20.3-9.2,30.2-14.3
					c14-7.3,27.7-15.2,38.9-26.5c7-7,13.5-14.5,20.2-21.8c8-8.8,16.1-17.5,23.9-26.5c3.7-4.3,6.9-9.1,10.4-13.6
					c-0.2-0.1-0.3-0.3-0.5-0.4c-2.2,1.7-4.3,3.4-6.6,5c-12,8.5-23.9,17.2-36.1,25.4c-7.8,5.3-16,10-24.3,14.5
					c-6.4,3.5-13,6.7-19.7,9.6c-7.8,3.4-15.8,6.3-23.6,9.7c-11.8,5.2-24.2,8.4-36.8,10.6c-9.3,1.6-18.9,2.6-28.4,0.6
					c-0.8-0.2-2,0.2-2.6,0.7c-1.4,1.2-2.4,2.9-3.8,4.2c-8.3,7.9-13.9,17.9-21.1,26.6C382.9,419.4,382.8,419.7,382.9,419.6
					L382.9,419.6z M376.8,414.3c0.2,0.7,0.6,1.3,1.2,2.3c4.5-5.9,8.6-11.6,13-17.1c2.9-3.7,6.1-7.2,9.3-10.6
					c1.3-1.4,1.6-2.8,1.1-4.7c-1.9-7.8-1.9-15.8-1.1-23.7c2.9-27.4,10.9-53.3,21.5-78.7c4.6-11,10.9-21,16.9-31.2
					c10.5-17.9,23.1-34.2,39.8-47c0.5-0.4,0.9-0.8,1.4-1.3c-14,7-25.3,17.1-35,29.1c-13.2,16.6-27,32.7-41.8,48
					c-11.8,12.1-19.8,26.6-24.9,42.6c-7.9,24.4-9.6,49.5-5.5,74.8C373.7,402.7,375.4,408.4,376.8,414.3L376.8,414.3z"/>
			</g>
		</g>
	</g>
</g>
</svg>
