<?xml version="1.0" encoding="UTF-8"?>
<svg width="146px" height="321px" viewBox="0 0 146 321" version="1.1" xmlns="http://www.w3.org/2000/svg" xmlns:xlink="http://www.w3.org/1999/xlink">
    <!-- Generator: sketchtool 43.2 (39069) - http://www.bohemiancoding.com/sketch -->
    <title>4FB0F0DF-D05F-4F58-B047-BA7B8F86E7A5</title>
    <desc>Created with sketchtool.</desc>
    <defs></defs>
    <g id="New" stroke="none" stroke-width="1" fill="none" fill-rule="evenodd">
        <g id="Home---new" transform="translate(-888.000000, -1268.000000)" fill="#F2EDE5">
            <path d="M996.403618,1295.67687 C980.330545,1317.991 962.643313,1339.9289 954.413675,1360.02214 C952.892693,1338.24832 941.200084,1323.62703 936.148341,1318.2927 C936.107596,1271.1351 911.649591,1273.18543 911.649591,1273.18543 C901.735921,1295.29876 926.044505,1312.94446 933.839578,1317.90001 C937.68288,1321.633 952.512361,1337.6784 953.204886,1362.81962 C948.519603,1374.68409 944.812233,1386.14092 941.919761,1397.17726 C940.249428,1403.61178 938.904985,1409.70683 937.77779,1415.65244 C935.862987,1402.59357 929.697642,1393.81051 927.076687,1390.59358 C928.665565,1343.46377 904.153152,1344.66965 904.153152,1344.66965 C893.397467,1366.60645 917.54335,1385.2036 924.95809,1390.23911 C925.704988,1391.04003 935.68631,1401.92704 936.867982,1420.02207 C931.585223,1451.77332 932.984178,1479.14141 936.718596,1500.69768 C938.17168,1509.10056 940.045738,1516.89251 942.123555,1524.12775 C935.292871,1515.23626 926.397825,1506.48066 922.690455,1502.95096 C907.955883,1458.92793 885.588941,1468.38968 885.588941,1468.38968 C882.886496,1494.14114 915.723491,1502.89675 922.148116,1504.3504 C926.493777,1508.50423 936.543031,1518.48169 943.224571,1527.94345 C950.897866,1561.44266 953.820052,1588.65744 953.996659,1588.8868 L967.254552,1589.11822 C967.037269,1588.83315 948.534656,1552.86542 939.177927,1506.13978 C939.585341,1503.95423 944.515094,1480.32056 969.176545,1447.53855 C1008.91327,1426.0768 996.173876,1405.91684 996.173876,1405.91684 C968.551813,1407.53222 966.664058,1446.00254 966.55559,1448.75833 C947.217399,1475.0526 940.508742,1495.25218 938.526078,1502.8384 C938.376691,1502.03749 938.200153,1501.26371 938.06436,1500.44924 C933.501416,1474.11431 932.442118,1439.05053 943.170685,1397.82499 C945.452157,1395.20505 960.485536,1378.44033 971.648322,1377.39501 C1018.56755,1380.9108 1018.40416,1356.43576 1018.40416,1356.43576 C996.105354,1344.327 975.830586,1369.94258 971.415395,1376.05117 C961.311907,1377.04214 948.912868,1389.44956 943.956381,1394.85236 C952.431164,1366.75985 955.589753,1353.43617 997.004229,1296.73002 C1043.38112,1295.54903 1034.03324,1271.30708 1034.03324,1271.30708 C1007.62142,1260.08312 996.403618,1295.67687 996.403618,1295.67687 Z" id="plants-right" transform="translate(960.118045, 1429.118219) scale(-1, 1) rotate(-1.000000) translate(-960.118045, -1429.118219) "></path>
        </g>
    </g>
</svg>