<?xml version="1.0" encoding="utf-8"?>
<!-- Generator: Adobe Illustrator 21.0.0, SVG Export Plug-In . SVG Version: 6.00 Build 0)  -->
<svg version="1.1" id="Layer_1" xmlns="http://www.w3.org/2000/svg" xmlns:xlink="http://www.w3.org/1999/xlink" x="0px" y="0px"
	 viewBox="0 0 510 490" style="enable-background:new 0 0 510 490;" xml:space="preserve">
<style type="text/css">
	.st0{fill:#F2EDE5;}
</style>
<g id="Page-1_1_">
	<g id="Artboard">
		<path id="Page-1" class="st0" d="M103.1,336.9c-0.7-1.1-2-2.2-2.1-3.3c-0.8-6.4,1.6-12.2,4.4-17.7c7.9-15.3,10.1-30.9,3.6-47.3
			c-1-2.6-2.6-3.6-5.1-4.4c-5.5-1.7-11-3.9-14.1-5c-6.5-4.3-11.1-6.8-15.1-10.2c-7.9-6.8-15.3-14.1-23-21.2
			c-10-9.2-17-20.5-22.9-32.6c-4-8.1-3.4-16.6-3.4-25.2c0-1,0.8-2.2,1.6-2.9c2.8-2.2,3.8-5.1,4-8.5c0.4-5.6,0.8-11.2,1.5-16.8
			c0.7-5.1,4-8.1,8.7-9.7c1.4-0.5,3.1-1.1,4-2.2c5-5.8,9.3-12.1,10.5-20c0.4-2.5,1.5-3.4,4.1-2.6c3.9,1.1,7.5,0.3,10.4-2.6
			c4.3-4.1,8.5-8.3,12.6-12.6c3.8-4,7-8.5,12.3-10.9c1.1-0.5,2-2.1,2.6-3.3c1.5-3.3,2.4-6.9,4.1-10.1c3.9-7.4,8.1-14.6,12.3-21.8
			c0.6-1,1.8-1.8,2.7-2.6c0.9,1.1,2.1,2,2.6,3.2c1.5,3.8,2.7,7.7,3.9,11.6c2,6,4.9,11.4,9.6,15.8c6.6,6.2,12.6,13,18.9,19.5
			c1.1,1.1,2.4,2.1,3.8,2.6c6.5,2.4,11.7,6.5,15.2,12.4c5.8,9.8,13.2,18.1,21.8,25.6c6.6,5.7,12.6,12,16.5,19.9c0.5,1.1,1,2.4,1,3.5
			c-0.1,2.8-0.2,5.6-0.8,8.4c-0.5,2.5-1.3,5-2.6,7.2c-2.1,3.5-3.9,6.9-3.7,11.1c0.1,2.2,0.1,4.4-0.4,6.5c-0.6,2.6-1.5,5.2-2.9,7.5
			c-1.9,3.3-4.4,6.3-6.7,9.3c-1.6,2.1-2.9,4.5-4.9,6c-5.7,4.2-8.9,9.9-11.4,16.4c-3.4,8.8-10.4,14.2-19.3,16.8
			c-3.3,1-6.8,1.2-10.1,1.9c-2.5,0.5-5.3,0.9-7.5,2.1c-6.7,3.9-13.3,7.8-20.8,9.9c-1.5,0.4-3,1.2-4.1,2.2c-1.5,1.3-3.3,2.9-2.1,5.3
			c3.8,7.8,3.4,16,2.6,24.3c-1.4,14.3-5.9,27.9-9.5,41.7C105.7,335.3,104.1,336,103.1,336.9L103.1,336.9z M125.8,253.9
			c3.3-0.9,6.6-2.2,9.6-3.9c5.5-3.2,11.6-4.1,17.7-4.9c10-1.4,16-7.8,20-16.1c2.8-5.9,5.1-11.9,10.9-15.6c4.2-2.7,6.4-7.1,8.8-11.2
			c0.9-1.6,2.5-2.8,3.4-4.4c1.4-2.7,2.9-5.4,3.7-8.4c0.6-2.5,0-5.3,0.6-7.8c0.7-3.1,2.1-6,3.3-8.9c1-2.5,2.2-4.9,2.9-7.4
			c2.4-9.7-3.1-16.4-9.3-22.7c-7.3-7.4-14.7-14.7-21.9-22.3c-2.4-2.5-4.3-5.7-6.1-8.7c-3.7-6.1-8.6-10.7-15.4-13
			c-1.6-0.5-3-1.9-4.2-3.1c-6.3-6.5-12.4-13.2-18.9-19.5c-5-4.7-8-10.3-10.1-16.6c-1.3-3.7-2.6-7.5-4.2-12.1
			c-4.4,11.4-13,19.5-16,30.7c-0.8,3-3,4.7-5.4,6.6C91,88,87.4,92.1,83.5,95.9c-4.5,4.3-8.9,8.8-13.7,12.8c-3,2.6-7,2.4-10.5,1.8
			c-2.1,4.7-3.8,9.6-6.4,13.9c-3,4.9-6.1,10-12.5,11.5c-2.7,0.6-4.6,3-4.9,6c-0.7,5.8-1.2,11.6-1.6,17.4c-0.3,3.8-1.7,7-4.3,9.8
			c-0.7,0.7-1.2,1.9-1.3,3c-1.3,13.5,3.7,25.1,11,36.1c10,15.2,23.3,27.3,37.3,38.5c7.9,6.3,16.9,11.5,27.3,13.5
			c0.9,0.2,1.8,0.3,2.7,0.5c0.7-3,0-5-2-7.3c-8.9-10.6-18.8-20.3-26.3-32.2C72,210.9,63.4,202.2,56,192.8c-4-5.2-7.7-10.6-11.5-16
			c-0.6-0.8-0.9-1.8-0.7-3.1c0.7,0.8,1.5,1.6,2.2,2.5c10.1,12.5,20.2,25,30.3,37.5c2.7,3.4,5.1,7.2,7.8,10.5
			c7.3,8.9,14.7,17.8,22.5,27.3c1.1-5.2,0.5-9.1-1.4-13c-10.8-21.6-23.8-41.6-39.2-60.2c-6.2-7.5-11.9-15.3-17.8-23
			c-0.7-0.9-1.1-1.9-1.5-3c23.3,25.4,45.4,51.5,60.5,83.7c0.3-1.3,0.5-1.9,0.5-2.5c0.2-4.4,0.1-8.8,0.7-13.1
			c0.9-6-1.4-10.9-4.9-15.3c-10.1-12.6-17.1-27-24.1-41.3c-3.8-7.9-6.7-16.2-10-24.3c-0.5-1.2-0.6-2.6-1.1-4.8
			c6.2,13.2,11.6,25.8,17.9,37.9c6.2,12.1,12.8,24.1,22.2,34.6c0.1-0.5,0.3-0.8,0.3-1.2c0.6-9.4,1.3-18.8,1.5-28.1
			c0.1-2.2-1.3-4.5-2.5-6.5c-7.9-13.5-16-26.9-23.7-40.5c-1.6-2.8-2-6.2-2.9-9.3c0.3,0,0.5-0.1,0.8-0.1c4.6,8.3,8.9,16.7,13.7,25
			c4.7,8.1,9.7,16,15.4,23.8c0.2-0.7,0.4-1.5,0.5-2.2c0.8-9.4,1.7-18.7,2.3-28.1c0.1-1.5-0.4-3.2-1.1-4.7c-4.3-10-8.7-19.9-13-29.8
			c-0.6-1.4-0.5-3.1-0.2-4.8c4.6,10.4,9.2,20.8,14.1,32.1c0.3-1.4,0.5-2,0.6-2.5c0.9-10,1.7-20,2.9-29.9c1.2-10.3,0.9-20.6-0.8-30.8
			c-0.4-2.3-1.8-4.4-2.8-6.6c0.7-0.2,1.4-0.4,2.1-0.7c0.8,2.4,2.1,4.8,2.4,7.3c1.1,8.9,2.2,17.8,2.6,26.7c0.2,5-1.1,10.1-1.6,15.1
			c-0.6,6-1,12.1-1.5,18.1c-0.1,1,0,2,0.5,3c5.2-11.8,10.5-23.7,15.8-35.8c0.6,4.4-1.4,7.9-2.9,11.4c-4.4,10.1-8.9,20.2-13.3,30.4
			c-0.2,0.5-0.4,1-0.4,1.5c-0.7,10.7-1.4,21.4-1.8,32.3c11.7-16,21.9-32.7,29.9-51.1c-0.3,1.7-0.2,3.6-1,5.2
			c-4.7,9.5-9.4,19.1-14.6,28.3c-3.9,6.9-8.7,13.3-12.8,20c-1.4,2.3-2.4,5.1-2.6,7.8c-0.7,8.2-1,16.4-1.2,24.7
			c17.6-22,36.5-42.9,52.6-66.2c-0.4,0.9-0.6,1.9-1.2,2.7c-5.6,8.4-10.9,17-17,25.2c-7.3,9.9-15.2,19.4-22.8,29
			c-3.7,4.8-7.5,9.5-11,14.4c-0.9,1.3-1,3.3-1.1,5c-0.4,6.8-0.7,13.6-1,20.3c0,0.4,0.1,0.7,0.3,1.3c20.6-25.9,44.4-48.6,66.5-72.8
			c-3.7,7.7-9.9,13.5-15.5,19.7c-15.1,16.6-30.3,33.1-45.2,49.8c-4.3,4.8-8.3,10.1-6.1,18.1c6-4.3,12-8.3,17.6-12.8
			c9.4-7.4,18.6-15.2,28-22.6c2-1.6,4.5-2.8,7.2-3.5c-0.3,0.4-0.5,0.9-0.9,1.2c-12.7,10.7-25.3,21.5-38.1,32
			c-3.9,3.2-8.5,5.6-12.7,8.6c-1,0.7-1.6,2.2-2,3.6C115.2,256.7,120.6,255.4,125.8,253.9L125.8,253.9z"/>
	</g>
</g>
</svg>
